<?xml version="1.0" encoding="UTF-8" standalone="no"?>
<!-- Created with Inkscape (http://www.inkscape.org/) -->

<svg
   xmlns:dc="http://purl.org/dc/elements/1.1/"
   xmlns:cc="http://creativecommons.org/ns#"
   xmlns:rdf="http://www.w3.org/1999/02/22-rdf-syntax-ns#"
   xmlns:svg="http://www.w3.org/2000/svg"
   xmlns="http://www.w3.org/2000/svg"
   xmlns:xlink="http://www.w3.org/1999/xlink"
   xmlns:sodipodi="http://sodipodi.sourceforge.net/DTD/sodipodi-0.dtd"
   xmlns:inkscape="http://www.inkscape.org/namespaces/inkscape"
   width="300"
   height="183.60001"
   id="svg2"
   version="1.1"
   inkscape:version="0.48.4 r9939"
   sodipodi:docname="tesseroid-split.svg"
   inkscape:export-filename="tesseroid-split.png"
   inkscape:export-xdpi="600"
   inkscape:export-ydpi="600">
  <defs
     id="defs4">
    <marker
       inkscape:stockid="Arrow1Send"
       orient="auto"
       refY="0"
       refX="0"
       id="Arrow1Send"
       style="overflow:visible">
      <path
         id="path3808"
         d="M 0,0 5,-5 -12.5,0 5,5 0,0 z"
         style="fill-rule:evenodd;stroke:#000000;stroke-width:1pt"
         transform="matrix(-0.2,0,0,-0.2,-1.2,0)"
         inkscape:connector-curvature="0" />
    </marker>
    <marker
       inkscape:stockid="Arrow1Sstart"
       orient="auto"
       refY="0"
       refX="0"
       id="Arrow1Sstart"
       style="overflow:visible">
      <path
         id="path3805"
         d="M 0,0 5,-5 -12.5,0 5,5 0,0 z"
         style="fill-rule:evenodd;stroke:#000000;stroke-width:1pt"
         transform="matrix(0.2,0,0,0.2,1.2,0)"
         inkscape:connector-curvature="0" />
    </marker>
    <marker
       inkscape:stockid="Arrow1Mstart"
       orient="auto"
       refY="0"
       refX="0"
       id="Arrow1Mstart"
       style="overflow:visible">
      <path
         id="path3799"
         d="M 0,0 5,-5 -12.5,0 5,5 0,0 z"
         style="fill-rule:evenodd;stroke:#000000;stroke-width:1pt"
         transform="matrix(0.4,0,0,0.4,4,0)"
         inkscape:connector-curvature="0" />
    </marker>
    <marker
       inkscape:stockid="Arrow1Sstart"
       orient="auto"
       refY="0"
       refX="0"
       id="Arrow1Sstart-4"
       style="overflow:visible">
      <path
         inkscape:connector-curvature="0"
         id="path3805-0"
         d="M 0,0 5,-5 -12.5,0 5,5 0,0 z"
         style="fill-rule:evenodd;stroke:#000000;stroke-width:1pt"
         transform="matrix(0.2,0,0,0.2,1.2,0)" />
    </marker>
    <marker
       inkscape:stockid="Arrow1Send"
       orient="auto"
       refY="0"
       refX="0"
       id="Arrow1Send-4"
       style="overflow:visible">
      <path
         inkscape:connector-curvature="0"
         id="path3808-5"
         d="M 0,0 5,-5 -12.5,0 5,5 0,0 z"
         style="fill-rule:evenodd;stroke:#000000;stroke-width:1pt"
         transform="matrix(-0.2,0,0,-0.2,-1.2,0)" />
    </marker>
    <marker
       inkscape:stockid="Arrow1Sstart"
       orient="auto"
       refY="0"
       refX="0"
       id="Arrow1Sstart-3"
       style="overflow:visible">
      <path
         inkscape:connector-curvature="0"
         id="path3805-9"
         d="M 0,0 5,-5 -12.5,0 5,5 0,0 z"
         style="fill-rule:evenodd;stroke:#000000;stroke-width:1pt"
         transform="matrix(0.2,0,0,0.2,1.2,0)" />
    </marker>
    <marker
       inkscape:stockid="Arrow1Send"
       orient="auto"
       refY="0"
       refX="0"
       id="Arrow1Send-8"
       style="overflow:visible">
      <path
         inkscape:connector-curvature="0"
         id="path3808-8"
         d="M 0,0 5,-5 -12.5,0 5,5 0,0 z"
         style="fill-rule:evenodd;stroke:#000000;stroke-width:1pt"
         transform="matrix(-0.2,0,0,-0.2,-1.2,0)" />
    </marker>
  </defs>
  <sodipodi:namedview
     id="base"
     pagecolor="#ffffff"
     bordercolor="#666666"
     borderopacity="1.0"
     inkscape:pageopacity="1"
     inkscape:pageshadow="2"
     inkscape:zoom="1.4"
     inkscape:cx="243.09415"
     inkscape:cy="110.66855"
     inkscape:document-units="px"
     inkscape:current-layer="layer1"
     showgrid="false"
     units="pc"
     inkscape:window-width="1366"
     inkscape:window-height="719"
     inkscape:window-x="0"
     inkscape:window-y="25"
     inkscape:window-maximized="1"
     fit-margin-top="0"
     fit-margin-left="0"
     fit-margin-right="0"
     fit-margin-bottom="0" />
  <metadata
     id="metadata7">
    <rdf:RDF>
      <cc:Work
         rdf:about="">
        <dc:format>image/svg+xml</dc:format>
        <dc:type
           rdf:resource="http://purl.org/dc/dcmitype/StillImage" />
        <dc:title />
      </cc:Work>
    </rdf:RDF>
  </metadata>
  <g
     inkscape:label="Layer 1"
     inkscape:groupmode="layer"
     id="layer1"
     transform="translate(-0.15625,-845.05627)">
    <image
       y="855.06165"
       x="149.64491"
       id="image3030"
       xlink:href="file:///home/leo/pub/paper-tesseroids/figs/tesseroid-split-ratio1.png"
       height="83.666252"
       width="149.85001" />
    <image
       y="944.97382"
       x="0.35714287"
       id="image3041"
       xlink:href="file:///home/leo/pub/paper-tesseroids/figs/tesseroid-split-ratio2.png"
       height="83.666252"
       width="149.85001" />
    <image
       y="944.97382"
       x="149.64491"
       id="image3052"
       xlink:href="file:///home/leo/pub/paper-tesseroids/figs/tesseroid-split-ratio6.png"
       height="83.666252"
       width="149.85001" />
    <image
       y="855.06165"
       x="0.35714287"
       id="image3063"
       xlink:href="file:///home/leo/pub/paper-tesseroids/figs/tesseroid-split-whole.png"
       height="83.666252"
       width="149.85001" />
    <g
       style="font-size:12px;font-style:normal;font-variant:normal;font-weight:normal;font-stretch:normal;line-height:125%;letter-spacing:0px;word-spacing:0px;fill:#000000;fill-opacity:1;stroke:none;font-family:Arial;-inkscape-font-specification:Sans"
       id="text3100"
       transform="translate(-6.5659915,1.2626907)">
      <path
         d="m 56.82431,858.64172 0,2.46534 1.116211,0 c 0.413083,0 0.732418,-0.10693 0.958008,-0.32081 0.225582,-0.21386 0.338375,-0.51855 0.338379,-0.91406 -4e-6,-0.39257 -0.112797,-0.69579 -0.338379,-0.90967 -0.22559,-0.21386 -0.544925,-0.32079 -0.958008,-0.3208 l -1.116211,0 m -0.887695,-0.72949 2.003906,0 c 0.735348,10e-6 1.290523,0.167 1.665528,0.50098 0.377924,0.33106 0.566889,0.81739 0.566894,1.45898 -5e-6,0.64747 -0.18897,1.13672 -0.566894,1.46778 -0.375005,0.33105 -0.93018,0.49658 -1.665528,0.49658 l -1.116211,0 0,2.63672 -0.887695,0 0,-6.56104"
         style="font-size:9px;font-family:Sans;-inkscape-font-specification:Sans"
         id="path3054"
         inkscape:connector-curvature="0" />
    </g>
    <g
       style="font-size:9px;font-style:normal;font-weight:normal;line-height:125%;letter-spacing:0px;word-spacing:0px;fill:#000000;fill-opacity:1;stroke:none;font-family:Sans"
       id="text2999"
       transform="translate(8.0505825,-31.610596)">
      <path
         d="m 66.669014,907.22919 0.887695,0 0,5.81396 3.194825,0 0,0.74707 -4.08252,0 0,-6.56103"
         id="path3060"
         inkscape:connector-curvature="0" />
      <path
         d="m 72.962471,910.87001 1.76709,4.72021 -0.666504,0 -1.073242,-2.83008 -1.319336,2.83008 -0.666504,0 1.678223,-3.6709 -0.25293,-0.67675 c -0.107098,-0.28711 -0.282554,-0.43066 -0.526367,-0.43067 l -0.328125,0 0,-0.54004 0.399902,0.007 c 0.514972,0.007 0.844236,0.20394 0.987793,0.59131"
         style="font-size:7px;baseline-shift:sub"
         id="path3062"
         inkscape:connector-curvature="0" />
    </g>
    <path
       style="fill:none;stroke:#000000;stroke-width:1.5;stroke-linecap:butt;stroke-linejoin:miter;stroke-miterlimit:4;stroke-opacity:1;stroke-dasharray:none;stroke-dashoffset:0;marker-start:url(#Arrow1Sstart);marker-end:url(#Arrow1Send)"
       d="m 57.035172,872.70261 50.844268,1.81853"
       id="path3104-7"
       inkscape:connector-curvature="0"
       sodipodi:nodetypes="cc" />
    <path
       style="fill:none;stroke:#000000;stroke-width:1.5;stroke-linecap:butt;stroke-linejoin:miter;stroke-miterlimit:4;stroke-opacity:1;stroke-dasharray:none;stroke-dashoffset:0;marker-start:url(#Arrow1Sstart);marker-end:url(#Arrow1Send)"
       d="m 103.61587,886.98414 14.22624,-20.15229"
       id="path3104-7-8"
       inkscape:connector-curvature="0"
       sodipodi:nodetypes="cc" />
    <path
       style="fill:none;stroke:#000000;stroke-width:1.5;stroke-linecap:butt;stroke-linejoin:miter;stroke-miterlimit:4;stroke-opacity:1;stroke-dasharray:none;stroke-dashoffset:0;marker-start:url(#Arrow1Sstart);marker-end:url(#Arrow1Send)"
       d="m 67.182633,890.48323 2.427356,29.58575"
       id="path3104-7-87"
       inkscape:connector-curvature="0"
       sodipodi:nodetypes="cc" />
    <g
       style="font-size:9px;font-style:normal;font-weight:normal;line-height:125%;letter-spacing:0px;word-spacing:0px;fill:#000000;fill-opacity:1;stroke:none;font-family:Sans"
       id="text2999-9"
       transform="translate(0.44162247,1.1887244)">
      <path
         d="m 109.5088,879.76239 0.8877,0 0,5.81396 3.19482,0 0,0.74708 -4.08252,0 0,-6.56104"
         id="path3065"
         inkscape:connector-curvature="0" />
      <path
         d="m 116.2466,882.80507 0,1.41162 c 0.45344,0 0.8317,0.17432 1.13476,0.52295 0.31217,0.35547 0.46826,0.84652 0.46826,1.47314 0,0.62663 -0.15609,1.11768 -0.46826,1.47315 -0.30306,0.34863 -0.68132,0.52294 -1.13476,0.52294 l 0,1.37061 -0.62549,0 0,-1.37061 c -0.45345,0 -0.83285,-0.17431 -1.13818,-0.52294 -0.3099,-0.35547 -0.46485,-0.84652 -0.46485,-1.47315 0,-0.62662 0.15495,-1.11767 0.46485,-1.47314 0.30533,-0.34863 0.68473,-0.52295 1.13818,-0.52295 l 0,-1.41162 0.62549,0 m 0,4.84326 c 0.25748,0 0.47395,-0.11735 0.64941,-0.35205 0.1914,-0.26205 0.28825,-0.62321 0.29053,-1.0835 0.002,-0.45573 -0.0946,-0.81689 -0.29053,-1.0835 -0.17546,-0.23469 -0.39193,-0.35204 -0.64941,-0.35205 l 0,2.8711 m -0.62549,0 0,-2.8711 c -0.25749,10e-6 -0.47282,0.11736 -0.646,0.35205 -0.19824,0.26661 -0.29622,0.62777 -0.29394,1.0835 0.002,0.46029 0.10026,0.82145 0.29394,1.0835 0.17318,0.2347 0.38851,0.35205 0.646,0.35205"
         style="font-size:7px;baseline-shift:sub"
         id="path3067"
         inkscape:connector-curvature="0" />
    </g>
    <g
       id="g3021"
       transform="translate(-0.89285715,0)">
      <path
         d="m 58.69225,899.72431 0.887695,0 0,5.81396 3.194824,0 0,0.74707 -4.082519,0 0,-6.56103"
         id="path3070"
         inkscape:connector-curvature="0"
         style="font-size:9px;font-style:normal;font-weight:normal;line-height:125%;letter-spacing:0px;word-spacing:0px;fill:#000000;fill-opacity:1;stroke:none;font-family:Sans" />
      <path
         d="m 65.696644,904.84511 c -0.07064,-0.041 -0.148114,-0.0706 -0.232422,-0.0889 -0.08203,-0.0205 -0.173179,-0.0308 -0.273437,-0.0308 -0.355471,0 -0.628908,0.11621 -0.820313,0.34863 -0.189129,0.23015 -0.283692,0.56169 -0.283691,0.99463 l 0,2.0166 -0.632324,0 0,-3.82812 0.632324,0 0,0.59473 c 0.13216,-0.23242 0.304198,-0.40446 0.516113,-0.51612 0.211912,-0.11393 0.469399,-0.17089 0.772461,-0.1709 0.04329,10e-6 0.09114,0.003 0.143555,0.0103 0.05241,0.005 0.110511,0.0125 0.174316,0.0239 l 0.0034,0.646"
         style="font-size:7px;font-style:normal;font-weight:normal;line-height:125%;letter-spacing:0px;word-spacing:0px;baseline-shift:sub;fill:#000000;fill-opacity:1;stroke:none;font-family:Sans"
         id="path3072"
         inkscape:connector-curvature="0" />
    </g>
    <text
       xml:space="preserve"
       style="font-size:11px;font-style:normal;font-variant:normal;font-weight:normal;font-stretch:normal;line-height:125%;letter-spacing:0px;word-spacing:0px;fill:#000000;fill-opacity:1;stroke:none;font-family:Arial;-inkscape-font-specification:Arial"
       x="2.8957868"
       y="857.21875"
       id="text3033"
       sodipodi:linespacing="125%"><tspan
         sodipodi:role="line"
         id="tspan3035"
         x="2.8957868"
         y="857.21875"
         style="font-size:11px;font-style:normal;font-variant:normal;font-weight:normal;font-stretch:normal;font-family:Arial;-inkscape-font-specification:Arial">(a)</tspan></text>
    <text
       xml:space="preserve"
       style="font-size:11px;font-style:normal;font-variant:normal;font-weight:normal;font-stretch:normal;line-height:125%;letter-spacing:0px;word-spacing:0px;fill:#000000;fill-opacity:1;stroke:none;font-family:Arial;-inkscape-font-specification:Arial"
       x="153.85802"
       y="857.21875"
       id="text3033-5"
       sodipodi:linespacing="125%"><tspan
         sodipodi:role="line"
         id="tspan3035-9"
         x="153.85802"
         y="857.21875"
         style="font-size:11px;font-style:normal;font-variant:normal;font-weight:normal;font-stretch:normal;font-family:Arial;-inkscape-font-specification:Arial">(b)</tspan></text>
    <text
       xml:space="preserve"
       style="font-size:11px;font-style:normal;font-variant:normal;font-weight:normal;font-stretch:normal;line-height:125%;letter-spacing:0px;word-spacing:0px;fill:#000000;fill-opacity:1;stroke:none;font-family:Arial;-inkscape-font-specification:Arial"
       x="153.85802"
       y="952.11224"
       id="text3033-4"
       sodipodi:linespacing="125%"><tspan
         sodipodi:role="line"
         id="tspan3035-3"
         x="153.85802"
         y="952.11224"
         style="font-size:11px;font-style:normal;font-variant:normal;font-weight:normal;font-stretch:normal;font-family:Arial;-inkscape-font-specification:Arial">(d)</tspan></text>
    <text
       xml:space="preserve"
       style="font-size:11px;font-style:normal;font-variant:normal;font-weight:normal;font-stretch:normal;line-height:125%;letter-spacing:0px;word-spacing:0px;fill:#000000;fill-opacity:1;stroke:none;font-family:Arial;-inkscape-font-specification:Arial"
       x="2.8957868"
       y="952.11224"
       id="text3033-41"
       sodipodi:linespacing="125%"><tspan
         sodipodi:role="line"
         id="tspan3035-0"
         x="2.8957868"
         y="952.11224"
         style="font-size:11px;font-style:normal;font-variant:normal;font-weight:normal;font-stretch:normal;font-family:Arial;-inkscape-font-specification:Arial">(c)</tspan></text>
  </g>
</svg>
