<?xml version="1.0" encoding="UTF-8" standalone="no"?>
<!-- Created with Inkscape (http://www.inkscape.org/) -->

<svg
   xmlns:dc="http://purl.org/dc/elements/1.1/"
   xmlns:cc="http://creativecommons.org/ns#"
   xmlns:rdf="http://www.w3.org/1999/02/22-rdf-syntax-ns#"
   xmlns:svg="http://www.w3.org/2000/svg"
   xmlns="http://www.w3.org/2000/svg"
   xmlns:xlink="http://www.w3.org/1999/xlink"
   xmlns:sodipodi="http://sodipodi.sourceforge.net/DTD/sodipodi-0.dtd"
   xmlns:inkscape="http://www.inkscape.org/namespaces/inkscape"
   width="300"
   height="207.3"
   id="svg2"
   version="1.1"
   inkscape:version="0.48.4 r9939"
   sodipodi:docname="tesseroid-split.svg"
   inkscape:export-filename="tesseroid-split.png"
   inkscape:export-xdpi="600"
   inkscape:export-ydpi="600">
  <defs
     id="defs4">
    <marker
       inkscape:stockid="Arrow1Send"
       orient="auto"
       refY="0.0"
       refX="0.0"
       id="Arrow1Send"
       style="overflow:visible;">
      <path
         id="path3808"
         d="M 0.0,0.0 L 5.0,-5.0 L -12.5,0.0 L 5.0,5.0 L 0.0,0.0 z "
         style="fill-rule:evenodd;stroke:#000000;stroke-width:1.0pt;"
         transform="scale(0.2) rotate(180) translate(6,0)" />
    </marker>
    <marker
       inkscape:stockid="Arrow1Sstart"
       orient="auto"
       refY="0.0"
       refX="0.0"
       id="Arrow1Sstart"
       style="overflow:visible">
      <path
         id="path3805"
         d="M 0.0,0.0 L 5.0,-5.0 L -12.5,0.0 L 5.0,5.0 L 0.0,0.0 z "
         style="fill-rule:evenodd;stroke:#000000;stroke-width:1.0pt"
         transform="scale(0.2) translate(6,0)" />
    </marker>
    <marker
       inkscape:stockid="Arrow1Mstart"
       orient="auto"
       refY="0.0"
       refX="0.0"
       id="Arrow1Mstart"
       style="overflow:visible">
      <path
         id="path3799"
         d="M 0.0,0.0 L 5.0,-5.0 L -12.5,0.0 L 5.0,5.0 L 0.0,0.0 z "
         style="fill-rule:evenodd;stroke:#000000;stroke-width:1.0pt"
         transform="scale(0.4) translate(10,0)" />
    </marker>
    <marker
       inkscape:stockid="Arrow1Sstart"
       orient="auto"
       refY="0"
       refX="0"
       id="Arrow1Sstart-4"
       style="overflow:visible">
      <path
         inkscape:connector-curvature="0"
         id="path3805-0"
         d="M 0,0 5,-5 -12.5,0 5,5 0,0 z"
         style="fill-rule:evenodd;stroke:#000000;stroke-width:1pt"
         transform="matrix(0.2,0,0,0.2,1.2,0)" />
    </marker>
    <marker
       inkscape:stockid="Arrow1Send"
       orient="auto"
       refY="0"
       refX="0"
       id="Arrow1Send-4"
       style="overflow:visible">
      <path
         inkscape:connector-curvature="0"
         id="path3808-5"
         d="M 0,0 5,-5 -12.5,0 5,5 0,0 z"
         style="fill-rule:evenodd;stroke:#000000;stroke-width:1pt"
         transform="matrix(-0.2,0,0,-0.2,-1.2,0)" />
    </marker>
    <marker
       inkscape:stockid="Arrow1Sstart"
       orient="auto"
       refY="0"
       refX="0"
       id="Arrow1Sstart-3"
       style="overflow:visible">
      <path
         inkscape:connector-curvature="0"
         id="path3805-9"
         d="M 0,0 5,-5 -12.5,0 5,5 0,0 z"
         style="fill-rule:evenodd;stroke:#000000;stroke-width:1pt"
         transform="matrix(0.2,0,0,0.2,1.2,0)" />
    </marker>
    <marker
       inkscape:stockid="Arrow1Send"
       orient="auto"
       refY="0"
       refX="0"
       id="Arrow1Send-8"
       style="overflow:visible">
      <path
         inkscape:connector-curvature="0"
         id="path3808-8"
         d="M 0,0 5,-5 -12.5,0 5,5 0,0 z"
         style="fill-rule:evenodd;stroke:#000000;stroke-width:1pt"
         transform="matrix(-0.2,0,0,-0.2,-1.2,0)" />
    </marker>
  </defs>
  <sodipodi:namedview
     id="base"
     pagecolor="#ffffff"
     bordercolor="#666666"
     borderopacity="1.0"
     inkscape:pageopacity="1"
     inkscape:pageshadow="2"
     inkscape:zoom="1.4"
     inkscape:cx="339.22498"
     inkscape:cy="124.57224"
     inkscape:document-units="px"
     inkscape:current-layer="layer1"
     showgrid="false"
     units="pc"
     inkscape:window-width="1366"
     inkscape:window-height="719"
     inkscape:window-x="0"
     inkscape:window-y="25"
     inkscape:window-maximized="1" />
  <metadata
     id="metadata7">
    <rdf:RDF>
      <cc:Work
         rdf:about="">
        <dc:format>image/svg+xml</dc:format>
        <dc:type
           rdf:resource="http://purl.org/dc/dcmitype/StillImage" />
        <dc:title />
      </cc:Work>
    </rdf:RDF>
  </metadata>
  <g
     inkscape:label="Layer 1"
     inkscape:groupmode="layer"
     id="layer1"
     transform="translate(0,-845.06162)">
    <image
       sodipodi:absref="/home/leo/pub/paper-tesseroids/figs/tesseroid-split-ratio1.png"
       xlink:href="tesseroid-split-ratio1.png"
       y="845.07532"
       x="150"
       id="image2993"
       height="103.5"
       width="150" />
    <image
       sodipodi:absref="/home/leo/pub/paper-tesseroids/figs/tesseroid-split-ratio2.png"
       xlink:href="tesseroid-split-ratio2.png"
       y="948.86163"
       x="0"
       id="image3004"
       height="103.5"
       width="150" />
    <image
       sodipodi:absref="/home/leo/pub/paper-tesseroids/figs/tesseroid-split-ratio6.png"
       xlink:href="tesseroid-split-ratio6.png"
       y="948.86163"
       x="150"
       id="image3015"
       height="103.5"
       width="150" />
    <image
       sodipodi:absref="/home/leo/pub/paper-tesseroids/figs/tesseroid-split-whole.png"
       xlink:href="tesseroid-split-whole.png"
       y="845.07532"
       x="0"
       id="image3026"
       height="103.5"
       width="150" />
    <g
       style="font-size:12px;font-style:normal;font-variant:normal;font-weight:normal;font-stretch:normal;line-height:125%;letter-spacing:0px;word-spacing:0px;fill:#000000;fill-opacity:1;stroke:none;font-family:Arial;-inkscape-font-specification:Sans"
       id="text3048">
      <path
         d="m 4.9664831,855.13672 c -0.4798206,0.82357 -0.8361028,1.63819 -1.0688476,2.44385 -0.2327495,0.80567 -0.3491231,1.62207 -0.3491211,2.44922 -2e-6,0.82715 0.1163716,1.64713 0.3491211,2.45996 0.2363255,0.80924 0.5926077,1.62386 1.0688476,2.44384 l -0.859375,0 c -0.5371114,-0.84147 -0.939943,-1.66862 -1.2084961,-2.48144 -0.264975,-0.81283 -0.3974619,-1.62028 -0.3974609,-2.42236 -1e-6,-0.7985 0.1324859,-1.60238 0.3974609,-2.41163 0.2649724,-0.80923 0.667804,-1.63638 1.2084961,-2.48144 l 0.859375,0"
         style="font-size:11px;font-family:Sans;-inkscape-font-specification:Sans"
         id="path3026" />
      <path
         d="m 9.6232214,860.45947 c -0.7985056,10e-6 -1.3517277,0.0913 -1.659668,0.27393 -0.3079445,0.18262 -0.4619157,0.49414 -0.461914,0.93457 -1.7e-6,0.35091 0.1145815,0.63021 0.34375,0.83789 0.2327451,0.2041 0.547849,0.30615 0.9453125,0.30615 0.547848,0 0.9864869,-0.19336 1.3159181,-0.58008 0.333003,-0.39029 0.499507,-0.90771 0.499512,-1.55224 l 0,-0.22022 -0.9829106,0 m 1.9711916,-0.4082 0,3.43213 -0.988281,0 0,-0.91309 c -0.225591,0.36524 -0.506678,0.63558 -0.8432622,0.81104 -0.3365921,0.17187 -0.7483755,0.25781 -1.2353515,0.25781 -0.6158875,0 -1.1064469,-0.17187 -1.4716797,-0.51562 -0.3616545,-0.34733 -0.5424811,-0.81104 -0.5424805,-1.39112 -6e-7,-0.67675 0.2255851,-1.18701 0.6767578,-1.53076 0.4547508,-0.34375 1.131508,-0.51562 2.0302735,-0.51562 l 1.3857426,0 0,-0.0967 c -5e-6,-0.45475 -0.150396,-0.80566 -0.451172,-1.05274 -0.2972048,-0.25064 -0.7161497,-0.37597 -1.2568363,-0.37598 -0.3437527,1e-5 -0.6785505,0.0412 -1.0043945,0.12354 -0.3258481,0.0824 -0.6391615,0.2059 -0.9399414,0.37061 l 0,-0.91309 c 0.3616522,-0.13964 0.7125633,-0.24348 1.0527344,-0.31152 0.3401668,-0.0716 0.6713839,-0.10742 0.9936523,-0.10743 0.8701132,10e-6 1.5200145,0.2256 1.9497075,0.67676 0.429682,0.45118 0.644525,1.1351 0.644531,2.05176"
         style="font-size:11px;font-family:Sans;-inkscape-font-specification:Sans"
         id="path3028" />
      <path
         d="m 13.479667,855.13672 0.859375,0 c 0.537107,0.84506 0.938148,1.67221 1.203125,2.48144 0.268551,0.80925 0.402828,1.61313 0.402832,2.41163 -4e-6,0.80208 -0.134281,1.60953 -0.402832,2.42236 -0.264977,0.81282 -0.666018,1.63997 -1.203125,2.48144 l -0.859375,0 c 0.476235,-0.81998 0.830727,-1.6346 1.063476,-2.44384 0.236326,-0.81283 0.35449,-1.63281 0.354492,-2.45996 -2e-6,-0.82715 -0.118166,-1.64355 -0.354492,-2.44922 -0.232749,-0.80566 -0.587241,-1.62028 -1.063476,-2.44385"
         style="font-size:11px;font-family:Sans;-inkscape-font-specification:Sans"
         id="path3030" />
    </g>
    <g
       style="font-size:12px;font-style:normal;font-variant:normal;font-weight:normal;font-stretch:normal;line-height:125%;letter-spacing:0px;word-spacing:0px;fill:#000000;fill-opacity:1;stroke:none;font-family:Arial;-inkscape-font-specification:Sans"
       id="text3048-2">
      <path
         d="m 159.64319,855.76715 c -0.47982,0.82358 -0.8361,1.63819 -1.06885,2.44385 -0.23275,0.80567 -0.34912,1.62207 -0.34912,2.44922 0,0.82715 0.11637,1.64713 0.34912,2.45996 0.23633,0.80924 0.59261,1.62386 1.06885,2.44385 l -0.85938,0 c -0.53711,-0.84148 -0.93994,-1.66862 -1.20849,-2.48145 -0.26498,-0.81282 -0.39746,-1.62028 -0.39746,-2.42236 0,-0.7985 0.13248,-1.60237 0.39746,-2.41162 0.26497,-0.80924 0.6678,-1.63639 1.20849,-2.48145 l 0.85938,0"
         style="font-size:11px;font-family:Sans;-inkscape-font-specification:Sans"
         id="path3033" />
      <path
         d="m 165.8844,861.11139 c -1e-5,-0.72689 -0.1504,-1.29622 -0.45117,-1.70801 -0.29721,-0.41536 -0.7072,-0.62304 -1.22998,-0.62305 -0.52279,10e-6 -0.93458,0.20769 -1.23535,0.62305 -0.29721,0.41179 -0.44581,0.98112 -0.44581,1.70801 0,0.72689 0.1486,1.29802 0.44581,1.71338 0.30077,0.41178 0.71256,0.61767 1.23535,0.61767 0.52278,0 0.93277,-0.20589 1.22998,-0.61767 0.30077,-0.41536 0.45116,-0.98649 0.45117,-1.71338 m -3.36231,-2.1001 c 0.20768,-0.35807 0.46908,-0.62304 0.78418,-0.79492 0.31869,-0.17545 0.69824,-0.26318 1.13868,-0.26318 0.73046,0 1.32307,0.29004 1.77783,0.87011 0.45833,0.58009 0.68749,1.34278 0.6875,2.28809 -1e-5,0.94531 -0.22917,1.70801 -0.6875,2.28809 -0.45476,0.58007 -1.04737,0.87011 -1.77783,0.87011 -0.44044,0 -0.81999,-0.0859 -1.13868,-0.25781 -0.3151,-0.17546 -0.5765,-0.44222 -0.78418,-0.80029 l 0,0.90234 -0.99365,0 0,-8.35742 0.99365,0 0,3.25488"
         style="font-size:11px;font-family:Sans;-inkscape-font-specification:Sans"
         id="path3035" />
      <path
         d="m 168.3927,855.76715 0.85938,0 c 0.5371,0.84506 0.93814,1.67221 1.20312,2.48145 0.26855,0.80925 0.40283,1.61312 0.40283,2.41162 0,0.80208 -0.13428,1.60954 -0.40283,2.42236 -0.26498,0.81283 -0.66602,1.63997 -1.20312,2.48145 l -0.85938,0 c 0.47624,-0.81999 0.83073,-1.63461 1.06348,-2.44385 0.23632,-0.81283 0.35449,-1.63281 0.35449,-2.45996 0,-0.82715 -0.11817,-1.64355 -0.35449,-2.44922 -0.23275,-0.80566 -0.58724,-1.62027 -1.06348,-2.44385"
         style="font-size:11px;font-family:Sans;-inkscape-font-specification:Sans"
         id="path3037" />
    </g>
    <g
       style="font-size:12px;font-style:normal;font-variant:normal;font-weight:normal;font-stretch:normal;line-height:125%;letter-spacing:0px;word-spacing:0px;fill:#000000;fill-opacity:1;stroke:none;font-family:Arial;-inkscape-font-specification:Sans"
       id="text3048-4">
      <path
         d="m 5.4869933,953.64526 c -0.4798206,0.82358 -0.8361028,1.63819 -1.0688476,2.44385 -0.2327495,0.80567 -0.3491231,1.62208 -0.3491211,2.44922 -2e-6,0.82715 0.1163716,1.64714 0.3491211,2.45996 0.2363255,0.80925 0.5926077,1.62386 1.0688476,2.44385 l -0.859375,0 c -0.5371114,-0.84147 -0.939943,-1.66862 -1.2084961,-2.48145 -0.264975,-0.81282 -0.3974619,-1.62027 -0.3974609,-2.42236 -10e-7,-0.7985 0.1324859,-1.60237 0.3974609,-2.41162 0.2649724,-0.80924 0.667804,-1.63639 1.2084961,-2.48145 l 0.859375,0"
         style="font-size:11px;font-family:Sans;-inkscape-font-specification:Sans"
         id="path3040" />
      <path
         d="m 11.738946,956.20728 0,0.92382 c -0.279302,-0.15396 -0.560388,-0.26855 -0.843261,-0.34375 -0.279301,-0.0788 -0.562179,-0.11816 -0.848633,-0.11816 -0.6409536,0 -1.1386745,0.20411 -1.4931642,0.6123 -0.354494,0.40463 -0.5317399,0.97397 -0.5317382,1.70801 -1.7e-6,0.73405 0.1772442,1.30518 0.5317382,1.71338 0.3544897,0.40462 0.8522106,0.60694 1.4931642,0.60693 0.286454,10e-6 0.569332,-0.0376 0.848633,-0.11279 0.282873,-0.0788 0.563959,-0.19515 0.843261,-0.34912 l 0,0.91309 c -0.275721,0.1289 -0.562179,0.22558 -0.859375,0.29004 -0.293624,0.0645 -0.606937,0.0967 -0.939941,0.0967 -0.9059271,-10e-6 -1.625653,-0.28467 -2.1591797,-0.85401 -0.5335295,-0.56933 -0.8002935,-1.3374 -0.8002929,-2.3042 -6e-7,-0.98111 0.2685538,-1.75276 0.805664,-2.31494 0.5406882,-0.56217 1.280108,-0.84326 2.2182616,-0.84326 0.304358,0 0.601558,0.0322 0.891602,0.0967 0.290034,0.0609 0.571121,0.15398 0.843261,0.2793"
         style="font-size:11px;font-family:Sans;-inkscape-font-specification:Sans"
         id="path3042" />
      <path
         d="m 13.312677,953.64526 0.859375,0 c 0.537107,0.84506 0.938148,1.67221 1.203125,2.48145 0.268551,0.80925 0.402829,1.61312 0.402832,2.41162 -3e-6,0.80209 -0.134281,1.60954 -0.402832,2.42236 -0.264977,0.81283 -0.666018,1.63998 -1.203125,2.48145 l -0.859375,0 c 0.476236,-0.81999 0.830727,-1.6346 1.063476,-2.44385 0.236326,-0.81282 0.35449,-1.63281 0.354493,-2.45996 -3e-6,-0.82714 -0.118167,-1.64355 -0.354493,-2.44922 -0.232749,-0.80566 -0.58724,-1.62027 -1.063476,-2.44385"
         style="font-size:11px;font-family:Sans;-inkscape-font-specification:Sans"
         id="path3044" />
    </g>
    <g
       style="font-size:12px;font-style:normal;font-variant:normal;font-weight:normal;font-stretch:normal;line-height:125%;letter-spacing:0px;word-spacing:0px;fill:#000000;fill-opacity:1;stroke:none;font-family:Arial;-inkscape-font-specification:Sans"
       id="text3048-2-9">
      <path
         d="m 160.1637,953.96045 c -0.47982,0.82357 -0.83611,1.63819 -1.06885,2.44385 -0.23275,0.80567 -0.34912,1.62207 -0.34912,2.44922 0,0.82715 0.11637,1.64713 0.34912,2.45996 0.23632,0.80924 0.59261,1.62386 1.06885,2.44384 l -0.85938,0 c -0.53711,-0.84147 -0.93994,-1.66862 -1.20849,-2.48144 -0.26498,-0.81282 -0.39747,-1.62028 -0.39747,-2.42236 0,-0.7985 0.13249,-1.60238 0.39747,-2.41163 0.26497,-0.80923 0.6678,-1.63638 1.20849,-2.48144 l 0.85938,0"
         style="font-size:11px;font-family:Sans;-inkscape-font-specification:Sans"
         id="path3047" />
      <path
         d="m 166.04504,957.20459 0,-3.25488 0.98829,0 0,8.35742 -0.98829,0 0,-0.90234 c -0.20768,0.35807 -0.47087,0.62483 -0.78955,0.80029 -0.3151,0.17187 -0.69466,0.25781 -1.13867,0.25781 -0.72689,0 -1.3195,-0.29004 -1.77783,-0.87012 -0.45475,-0.58007 -0.68213,-1.34277 -0.68213,-2.28808 0,-0.94531 0.22738,-1.70801 0.68213,-2.28809 0.45833,-0.58007 1.05094,-0.87011 1.77783,-0.87012 0.44401,10e-6 0.82357,0.0877 1.13867,0.26319 0.31868,0.17188 0.58187,0.43685 0.78955,0.79492 m -3.36767,2.1001 c 0,0.72689 0.1486,1.29801 0.4458,1.71338 0.30078,0.41178 0.71256,0.61767 1.23535,0.61767 0.52278,0 0.93457,-0.20589 1.23535,-0.61767 0.30078,-0.41537 0.45117,-0.98649 0.45117,-1.71338 0,-0.72689 -0.15039,-1.29622 -0.45117,-1.70801 -0.30078,-0.41536 -0.71257,-0.62304 -1.23535,-0.62305 -0.52279,1e-5 -0.93457,0.20769 -1.23535,0.62305 -0.2972,0.41179 -0.4458,0.98112 -0.4458,1.70801"
         style="font-size:11px;font-family:Sans;-inkscape-font-specification:Sans"
         id="path3049" />
      <path
         d="m 168.91321,953.96045 0.85937,0 c 0.53711,0.84506 0.93815,1.67221 1.20313,2.48144 0.26855,0.80925 0.40283,1.61313 0.40283,2.41163 0,0.80208 -0.13428,1.60954 -0.40283,2.42236 -0.26498,0.81282 -0.66602,1.63997 -1.20313,2.48144 l -0.85937,0 c 0.47623,-0.81998 0.83073,-1.6346 1.06347,-2.44384 0.23633,-0.81283 0.35449,-1.63281 0.3545,-2.45996 -1e-5,-0.82715 -0.11817,-1.64355 -0.3545,-2.44922 -0.23274,-0.80566 -0.58724,-1.62028 -1.06347,-2.44385"
         style="font-size:11px;font-family:Sans;-inkscape-font-specification:Sans"
         id="path3051" />
    </g>
    <g
       style="font-size:12px;font-style:normal;font-variant:normal;font-weight:normal;font-stretch:normal;line-height:125%;letter-spacing:0px;word-spacing:0px;fill:#000000;fill-opacity:1;stroke:none;font-family:Arial;-inkscape-font-specification:Sans"
       id="text3100">
      <path
         d="m 56.82431,858.64172 0,2.46534 1.116211,0 c 0.413083,0 0.732418,-0.10693 0.958008,-0.32081 0.225582,-0.21386 0.338375,-0.51855 0.338379,-0.91406 -4e-6,-0.39257 -0.112797,-0.69579 -0.338379,-0.90967 -0.22559,-0.21386 -0.544925,-0.32079 -0.958008,-0.3208 l -1.116211,0 m -0.887695,-0.72949 2.003906,0 c 0.735348,10e-6 1.290523,0.167 1.665528,0.50098 0.377924,0.33106 0.566889,0.81739 0.566894,1.45898 -5e-6,0.64747 -0.18897,1.13672 -0.566894,1.46778 -0.375005,0.33105 -0.93018,0.49658 -1.665528,0.49658 l -1.116211,0 0,2.63672 -0.887695,0 0,-6.56104"
         style="font-size:9px;font-family:Sans;-inkscape-font-specification:Sans"
         id="path3054" />
    </g>
    <path
       style="fill:none;stroke:#000000;stroke-width:1.50000000000000000;stroke-linecap:butt;stroke-linejoin:miter;stroke-miterlimit:4;stroke-opacity:1;stroke-dasharray:4.50000000000000000, 1.50000000000000000;stroke-dashoffset:0"
       d="m 61.619305,867.50371 21.213204,6.56599"
       id="path3104"
       inkscape:connector-curvature="0"
       sodipodi:nodetypes="cc" />
    <g
       style="font-size:9px;font-style:normal;font-variant:normal;font-weight:normal;font-stretch:normal;line-height:125%;letter-spacing:0px;word-spacing:0px;fill:#000000;fill-opacity:1;stroke:none;font-family:Arial;-inkscape-font-specification:Sans"
       id="text3874">
      <path
         d="m 69.444061,875.32971 0,-2.66308 0.808594,0 0,6.83789 -0.808594,0 0,-0.73828 c -0.169926,0.29296 -0.385257,0.51123 -0.645996,0.65478 -0.257815,0.14063 -0.568362,0.21094 -0.93164,0.21094 -0.594729,0 -1.079592,-0.23731 -1.45459,-0.71192 -0.372071,-0.4746 -0.558106,-1.09863 -0.558106,-1.87207 0,-0.77343 0.186035,-1.39745 0.558106,-1.87207 0.374998,-0.4746 0.859861,-0.71191 1.45459,-0.71191 0.363278,0 0.673825,0.0718 0.93164,0.21533 0.260739,0.14063 0.47607,0.35743 0.645996,0.65039 m -2.755371,1.71826 c -10e-7,0.59473 0.121581,1.06202 0.364746,1.40186 0.246092,0.33691 0.583006,0.50537 1.010742,0.50537 0.427732,0 0.764645,-0.16846 1.010743,-0.50537 0.246089,-0.33984 0.369136,-0.80713 0.36914,-1.40186 -4e-6,-0.59472 -0.123051,-1.06054 -0.36914,-1.39746 -0.246098,-0.33984 -0.583011,-0.50976 -1.010743,-0.50976 -0.427736,0 -0.76465,0.16992 -1.010742,0.50976 -0.243165,0.33692 -0.364747,0.80274 -0.364746,1.39746"
         style="font-family:Sans;-inkscape-font-specification:Sans"
         id="path3057" />
    </g>
    <g
       style="font-size:9px;font-style:normal;font-weight:normal;line-height:125%;letter-spacing:0px;word-spacing:0px;fill:#000000;fill-opacity:1;stroke:none;font-family:Sans"
       id="text2999">
      <path
         d="m 66.669014,907.22919 0.887695,0 0,5.81396 3.194825,0 0,0.74707 -4.08252,0 0,-6.56103"
         style=""
         id="path3060" />
      <path
         d="m 72.962471,910.87001 1.76709,4.72021 -0.666504,0 -1.073242,-2.83008 -1.319336,2.83008 -0.666504,0 1.678223,-3.6709 -0.25293,-0.67675 c -0.107098,-0.28711 -0.282554,-0.43066 -0.526367,-0.43067 l -0.328125,0 0,-0.54004 0.399902,0.007 c 0.514972,0.007 0.844236,0.20394 0.987793,0.59131"
         style="font-size:7px;baseline-shift:sub"
         id="path3062" />
    </g>
    <path
       style="fill:none;stroke:#000000;stroke-width:1.50000000000000000;stroke-linecap:butt;stroke-linejoin:miter;stroke-miterlimit:4;stroke-opacity:1;stroke-dasharray:none;stroke-dashoffset:0;marker-start:url(#Arrow1Sstart);marker-end:url(#Arrow1Send)"
       d="m 35.821969,903.00719 69.784631,1.56599"
       id="path3104-7"
       inkscape:connector-curvature="0"
       sodipodi:nodetypes="cc" />
    <path
       style="fill:none;stroke:#000000;stroke-width:1.5;stroke-linecap:butt;stroke-linejoin:miter;stroke-miterlimit:4;stroke-opacity:1;stroke-dasharray:none;stroke-dashoffset:0;marker-start:url(#Arrow1Sstart);marker-end:url(#Arrow1Send)"
       d="m 110.31711,902.58113 14.22624,-20.15229"
       id="path3104-7-8"
       inkscape:connector-curvature="0"
       sodipodi:nodetypes="cc" />
    <path
       style="fill:none;stroke:#000000;stroke-width:1.5;stroke-linecap:butt;stroke-linejoin:miter;stroke-miterlimit:4;stroke-opacity:1;stroke-dasharray:none;stroke-dashoffset:0;marker-start:url(#Arrow1Sstart);marker-end:url(#Arrow1Send)"
       d="m 27.42333,889.37518 6.588818,28.94471"
       id="path3104-7-87"
       inkscape:connector-curvature="0"
       sodipodi:nodetypes="cc" />
    <g
       style="font-size:9px;font-style:normal;font-weight:normal;line-height:125%;letter-spacing:0px;word-spacing:0px;fill:#000000;fill-opacity:1;stroke:none;font-family:Sans"
       id="text2999-9">
      <path
         d="m 109.5088,879.76239 0.8877,0 0,5.81396 3.19482,0 0,0.74708 -4.08252,0 0,-6.56104"
         style=""
         id="path3065" />
      <path
         d="m 116.2466,882.80507 0,1.41162 c 0.45344,0 0.8317,0.17432 1.13476,0.52295 0.31217,0.35547 0.46826,0.84652 0.46826,1.47314 0,0.62663 -0.15609,1.11768 -0.46826,1.47315 -0.30306,0.34863 -0.68132,0.52294 -1.13476,0.52294 l 0,1.37061 -0.62549,0 0,-1.37061 c -0.45345,0 -0.83285,-0.17431 -1.13818,-0.52294 -0.3099,-0.35547 -0.46485,-0.84652 -0.46485,-1.47315 0,-0.62662 0.15495,-1.11767 0.46485,-1.47314 0.30533,-0.34863 0.68473,-0.52295 1.13818,-0.52295 l 0,-1.41162 0.62549,0 m 0,4.84326 c 0.25748,0 0.47395,-0.11735 0.64941,-0.35205 0.1914,-0.26205 0.28825,-0.62321 0.29053,-1.0835 0.002,-0.45573 -0.0946,-0.81689 -0.29053,-1.0835 -0.17546,-0.23469 -0.39193,-0.35204 -0.64941,-0.35205 l 0,2.8711 m -0.62549,0 0,-2.8711 c -0.25749,10e-6 -0.47282,0.11736 -0.646,0.35205 -0.19824,0.26661 -0.29622,0.62777 -0.29394,1.0835 0.002,0.46029 0.10026,0.82145 0.29394,1.0835 0.17318,0.2347 0.38851,0.35205 0.646,0.35205"
         style="font-size:7px;baseline-shift:sub"
         id="path3067" />
    </g>
    <g
       style="font-size:9px;font-style:normal;font-weight:normal;line-height:125%;letter-spacing:0px;word-spacing:0px;fill:#000000;fill-opacity:1;stroke:none;font-family:Sans"
       id="text2999-0">
      <path
         d="m 16.549393,892.9386 0.887695,0 0,5.81396 3.194824,0 0,0.74707 -4.082519,0 0,-6.56103"
         style=""
         id="path3070" />
      <path
         d="m 23.553787,898.0594 c -0.07064,-0.041 -0.148114,-0.0706 -0.232422,-0.0889 -0.08203,-0.0205 -0.173179,-0.0308 -0.273437,-0.0308 -0.355471,0 -0.628908,0.11621 -0.820313,0.34863 -0.189129,0.23015 -0.283692,0.56169 -0.283691,0.99463 l 0,2.0166 -0.632324,0 0,-3.82812 0.632324,0 0,0.59473 c 0.13216,-0.23242 0.304198,-0.40446 0.516113,-0.51612 0.211912,-0.11393 0.469399,-0.17089 0.772461,-0.1709 0.04329,10e-6 0.09114,0.003 0.143555,0.0103 0.05241,0.005 0.110511,0.0125 0.174316,0.0239 l 0.0034,0.646"
         style="font-size:7px;baseline-shift:sub"
         id="path3072" />
    </g>
  </g>
</svg>
