<?xml version="1.0" encoding="UTF-8" standalone="no"?>
<!-- Created with Inkscape (http://www.inkscape.org/) -->

<svg
   xmlns:dc="http://purl.org/dc/elements/1.1/"
   xmlns:cc="http://creativecommons.org/ns#"
   xmlns:rdf="http://www.w3.org/1999/02/22-rdf-syntax-ns#"
   xmlns:svg="http://www.w3.org/2000/svg"
   xmlns="http://www.w3.org/2000/svg"
   xmlns:sodipodi="http://sodipodi.sourceforge.net/DTD/sodipodi-0.dtd"
   xmlns:inkscape="http://www.inkscape.org/namespaces/inkscape"
   id="svg2"
   version="1.1"
   inkscape:version="0.48.3.1 r9886"
   width="300"
   height="258.75"
   xml:space="preserve"
   sodipodi:docname="tesseroid.svg"
   inkscape:export-filename="tesseroid-coordinates.png"
   inkscape:export-xdpi="150"
   inkscape:export-ydpi="150"><metadata
     id="metadata8"><rdf:RDF><cc:Work
         rdf:about=""><dc:format>image/svg+xml</dc:format><dc:type
           rdf:resource="http://purl.org/dc/dcmitype/StillImage" /><dc:title /></cc:Work></rdf:RDF></metadata><defs
     id="defs6"><marker
       inkscape:stockid="Arrow1Mend"
       orient="auto"
       refY="0"
       refX="0"
       id="Arrow1Mend"
       style="overflow:visible"><path
         id="path4059"
         d="M 0,0 5,-5 -12.5,0 5,5 0,0 z"
         style="fill-rule:evenodd;stroke:#000000;stroke-width:1pt;marker-start:none"
         transform="matrix(-0.4,0,0,-0.4,-4,0)"
         inkscape:connector-curvature="0" /></marker></defs><sodipodi:namedview
     pagecolor="#ffffff"
     bordercolor="#666666"
     borderopacity="1"
     objecttolerance="10"
     gridtolerance="10"
     guidetolerance="10"
     inkscape:pageopacity="1"
     inkscape:pageshadow="2"
     inkscape:window-width="1366"
     inkscape:window-height="744"
     id="namedview4"
     showgrid="false"
     inkscape:zoom="1.7241457"
     inkscape:cx="41.601015"
     inkscape:cy="118.02108"
     inkscape:window-x="0"
     inkscape:window-y="24"
     inkscape:window-maximized="1"
     inkscape:current-layer="g10"
     units="pc" /><g
     id="g10"
     inkscape:groupmode="layer"
     inkscape:label="tesseroid_coordsys"
     transform="matrix(1.25,0,0,-1.25,0,258.75005)">



















<text
   id="text76"
   transform="scale(1,-1)"
   x="159.28535"
   y="-29.665953"
   style="font-size:11.17003632px"><tspan
     id="tspan78"
     y="-29.665953"
     x="159.28535"
     style="font-size:10.42536736px;font-variant:normal;font-weight:normal;writing-mode:lr-tb;fill:#000000;fill-opacity:1;fill-rule:nonzero;stroke:none;font-family:DejaVu Sans;-inkscape-font-specification:DejaVuSans">φ</tspan><tspan
     id="tspan80"
     y="-6.5873909"
     x="122.9922"
     style="font-size:10.42536736px;font-variant:normal;font-weight:normal;writing-mode:lr-tb;fill:#000000;fill-opacity:1;fill-rule:nonzero;stroke:none;font-family:DejaVu Sans;-inkscape-font-specification:DejaVuSans">λ</tspan></text>

<path
   d="m 101.05408,21.594543 c 10.00649,-4.61788 33.25972,-7.079942 49.26917,-1.88029"
   style="fill:none;stroke:#000000;stroke-width:0.96806979;stroke-linecap:butt;stroke-linejoin:miter;stroke-miterlimit:4;stroke-opacity:1;stroke-dasharray:none"
   id="path84"
   inkscape:connector-curvature="0" /><path
   d="m 146.63963,18.518071 -1.24307,-2.439325 5.84636,3.93372 -7.04292,-0.250401 2.43963,-1.243994 z"
   style="fill:#000000;fill-opacity:1;fill-rule:evenodd;stroke:#000000;stroke-width:0.48403484;stroke-linecap:butt;stroke-linejoin:miter;stroke-miterlimit:4;stroke-opacity:1;stroke-dasharray:none"
   id="path88"
   inkscape:connector-curvature="0" /><path
   d="m 141.45145,26.924512 24.44842,45.88744"
   style="fill:none;stroke:#000000;stroke-width:0.96806979;stroke-linecap:butt;stroke-linejoin:miter;stroke-miterlimit:4;stroke-opacity:1;stroke-dasharray:none"
   id="path92"
   inkscape:connector-curvature="0" /><path
   d="m 164.07854,69.393732 0.79947,-2.617695 1.47689,6.890234 -4.89405,-5.072005 2.61769,0.799466 z"
   style="fill:#000000;fill-opacity:1;fill-rule:evenodd;stroke:#000000;stroke-width:0.48403531;stroke-linecap:butt;stroke-linejoin:miter;stroke-miterlimit:4;stroke-opacity:1;stroke-dasharray:none"
   id="path96"
   inkscape:connector-curvature="0" /><path
   d="m 154.38449,19.557873 c 4.01097,11.086261 1.69133,20.121889 -1.12724,26.328706"
   style="fill:none;stroke:#000000;stroke-width:0.96806979;stroke-linecap:butt;stroke-linejoin:miter;stroke-miterlimit:4;stroke-opacity:1;stroke-dasharray:none"
   id="path100"
   inkscape:connector-curvature="0" /><path
   d="m 154.85768,42.359635 2.56335,-0.959104 -4.56371,5.366106 1.0399,-6.969844 0.96046,2.562842 z"
   style="fill:#000000;fill-opacity:1;fill-rule:evenodd;stroke:#000000;stroke-width:0.48403543;stroke-linecap:butt;stroke-linejoin:miter;stroke-miterlimit:4;stroke-opacity:1;stroke-dasharray:none"
   id="path104"
   inkscape:connector-curvature="0" /><path
   d="m 26.859909,12.929387 0,2.141854 0.09495,2.232146 0.09029,2.2368 0.09495,2.140923 0.09494,2.233077 0.185237,2.232145 0.185236,2.141855 0.185237,2.235869 0.280181,2.138131 0.280182,2.2368 0.280182,2.232145 0.275527,2.141855 0.375127,2.232145 0.370473,2.141855 0.465418,2.235869 0.465419,2.138131 0.465418,2.141854 0.465418,2.235869 0.560363,2.138131 0.55571,2.141855 0.560363,2.141854 0.560364,2.141855 0.650654,2.140923 0.650655,2.04784 0.7456,2.140924 0.7456,2.138131 0.650654,2.050633 0.835891,2.04784 0.7456,2.140923 0.835891,2.04784 0.840546,2.046909 0.930836,1.955688 0.835891,2.04784 0.930836,1.951963 0.930837,2.050633 1.025781,1.952895 0.930837,1.956618 1.021127,1.951963 1.120727,1.861673 1.021128,1.956618 1.116073,1.861673 1.120727,1.861668 1.116072,1.86168 1.116073,1.86167 1.211018,1.76673 1.211018,1.77138 1.206364,1.76673 1.305964,1.77045 1.211018,1.76766 1.301309,1.67643 1.301309,1.67551 1.305964,1.67271 1.396254,1.58521 1.396255,1.67272 1.301309,1.58521 1.396255,1.48748 1.491199,1.58149 1.396255,1.4912 1.486546,1.49027 1.491199,1.48747 1.4912,1.39626 1.486546,1.4912 1.4912,1.30131 1.581491,1.39625 1.581491,1.30504 1.4912,1.30224 1.581491,1.3013 1.676436,1.21102 1.581491,1.21102 1.581491,1.21102 1.676436,1.11607 1.676436,1.21102 1.676437,1.02113 1.581491,1.11979 1.766727,1.02206 1.67643,1.02578 1.67644,0.93084 1.76673,0.93084 1.67643,0.93083 1.76673,0.83589 1.67644,0.83962 1.77138,0.83682 1.76673,0.83589 1.76672,0.7456 1.77139,0.65066 1.76672,0.7456 1.77138,0.65065 1.86168,0.56036 1.76672,0.55944 1.76673,0.55664 1.86167,0.56036 1.77139,0.46542 1.86167,0.46542 1.76673,0.37047 1.86167,0.3742 1.77138,0.3714 1.86167,0.28018 1.76673,0.27925 1.86167,0.27646 M 57.297327,7.439314 l 0,2.2321456 0.09495,2.1418544 0,2.232146 0.09494,2.236799 0.09029,2.140924 0.09495,2.233077 0.185237,2.232145 0.09494,2.141855 0.185237,2.235869 0.280181,2.233076 0.185237,2.232146 0.185236,2.141854 0.280182,2.235869 0.280182,2.233076 0.370473,2.141855 0.280181,2.232145 0.370473,2.235869 0.375127,2.138131 0.370473,2.2368 0.370473,2.140924 0.465418,2.138131 0.465418,2.2368 0.465418,2.140923 0.465419,2.138132 0.465418,2.141854 0.560363,2.141854 0.560364,2.141855 0.555709,2.046909 0.560364,2.141855 0.650654,2.046909 0.560364,2.141854 0.650654,2.046909 0.650655,2.046909 0.7456,2.04691 0.650654,2.050632 0.7456,1.952895 0.7456,2.046909 0.740946,1.956618 0.7456,1.955687 0.7456,1.952895 0.835891,1.956618 0.840545,1.951964 0.835891,1.861672 0.840545,1.861672 0.835892,1.95662 0.930836,1.76673 0.835891,1.86167 0.930836,1.77138 0.930837,1.86167 0.930836,1.76673 1.025782,1.67644 0.930836,1.76672 1.025782,1.67644 1.021127,1.67644 1.025782,1.67643 1.021127,1.58149 1.025782,1.67644 1.025782,1.58149 1.116072,1.49027 1.021128,1.58242 1.120727,1.48655 1.116073,1.4912 1.116073,1.49027 1.116072,1.39625 1.211018,1.39626 1.116073,1.39625 1.116077,1.30224 1.21102,1.30131 1.21101,1.30596 1.21102,1.30131 1.11608,1.21102 1.3013,1.21102 1.21102,1.21009 1.21102,1.117 1.21102,1.11607 1.30131,1.11608 1.21102,1.02578 1.30131,1.02112 1.21101,1.02579 1.30597,0.93083 1.30131,0.93084 1.21101,0.83589 1.30131,0.93084 1.30597,0.84054 1.30131,0.74467 1.30131,0.83682 1.30596,0.65066 1.30131,0.7456 1.39625,0.65065 1.30597,0.65066 1.30131,0.56036 1.3013,0.55943 1.39626,0.55664 1.30596,0.46542 1.30131,0.46542 1.39626,0.46542 1.30596,0.37419 1.30131,0.37141 1.39625,0.37047 M 96.021982,3.901205 l 0,6.609869 0.09495,2.138131 0,2.2368 0.09029,2.232146 0.09494,2.235868 0.09029,2.138132 0.09495,2.236799 0.09495,2.232146 0.09029,2.235869 0.185237,2.233076 0.09494,2.232146 0.185236,2.141854 0.185237,2.235869 0.18989,2.233077 0.185237,2.232145 0.185236,2.141855 0.185237,2.235869 0.185236,2.233076 0.280182,2.141855 0.185236,2.232145 0.280182,2.141855 0.280182,2.141854 0.280182,2.140924 0.280181,2.233076 0.275527,2.141855 0.28018,2.140923 0.37513,2.138131 0.27553,2.050633 0.37512,2.138131 0.37048,2.050633 0.28018,2.138131 0.37047,2.050632 0.37513,2.04784 0.46542,2.046909 0.37047,2.046909 0.37513,2.04691 0.46541,1.956618 0.37048,1.955687 0.46542,2.04784 0.46541,1.951964 0.37048,1.861672 0.46541,1.956618 0.46542,1.955688 0.56037,1.861675 0.46541,1.86167 0.46542,1.86167 0.56037,1.76766 0.46541,1.86167 0.55571,1.76673 0.46542,1.77138 0.56037,1.67551 0.5557,1.76766 0.56037,1.67643 0.56036,1.67551 0.55571,1.67271 0.56036,1.58522 0.55571,1.67271 0.65531,1.58521 0.55571,1.48748 0.56037,1.58149 0.65065,1.4912 0.56036,1.49027 0.65066,1.39625 0.65065,1.48748 0.65066,1.39625 0.56036,1.30504 0.65066,1.39625 0.65065,1.30224 0.65065,1.30131 0.65531,1.21102 0.65066,1.21102 0.65065,1.21102 0.7456,1.21008 0.65066,1.11701 0.65065,1.11607 0.65066,1.02485 0.7456,1.117 0.65065,1.02113 0.7456,0.93084 0.65066,0.93083 0.7456,0.93084 0.65065,0.93084 0.7456,0.84054 0.65065,0.83589 0.7456,0.7456 0.7456,0.7456 0.65066,0.74467 0.7456,0.65159 0.7456,0.65065 0.65065,0.65066 0.7456,0.56036 0.7456,0.55571 0.74095,0.56036 0.65531,0.46542 0.74094,0.46542 0.7456,0.46542 0.7456,0.37047 m -2.51232,-162.241985 0,8.748931 0.0903,2.232146 0,28.855927 0.0949,2.141854 0,13.126654 0.095,2.232146 0,8.562764 0.0903,2.050632 0,8.377527 0.0949,2.04784 0,6.140728 0.0903,1.956618 0,5.8652 0.0949,1.951964 0,5.679964 0.095,1.86167 0,3.72335 0.0903,1.76672 0,5.30856 0.0949,1.67272 0,3.35287 0.0903,1.67644 0,3.16298 0.0949,1.58149 0,3.07269 0.0949,1.4912 0,1.48655 0.0903,1.4912 0,2.7925 0.0949,1.30131 0,2.70222 0.0903,1.21009 0,1.30224 0.095,1.21102 0,2.32709 0.0949,1.11607 0,2.14186 0.0903,1.02112 0,1.02578 0.095,0.93084 0,1.86167 0.0903,0.93084 0,0.83589 0.095,0.7456 0,0.83962 0.0949,0.74187 0,1.39626 0.0903,0.65437 0,0.55664 0.095,0.56037 0,1.11607 0.0903,0.46542 0,0.37047 0.0949,0.46542 m 40.9568,-161.2199267 0,2.2358689 -0.0949,2.1381311 0,4.3777237 -0.0903,2.233076 0,2.232146 -0.0949,2.2368 -0.0903,2.232145 -0.095,2.141855 -0.0949,2.232145 -0.0903,2.2368 -0.095,2.232146 -0.18523,2.235868 -0.095,2.233077 -0.18524,2.141854 -0.0903,2.232146 -0.18989,2.235869 -0.18523,2.233076 -0.18524,2.141855 -0.18524,2.232145 -0.28018,2.141855 -0.18523,2.232145 -0.18524,2.141855 -0.28018,2.235869 -0.28018,2.138131 -0.18524,2.141854 -0.28018,2.141855 -0.28018,2.141854 -0.28019,2.140924 -0.27552,2.138131 -0.37513,2.050633 -0.28018,2.138131 -0.27553,2.050632 -0.37513,2.138131 -0.28018,2.050633 -0.37047,2.04784 -0.37047,2.046909 -0.37513,1.955687 -0.37047,2.04784 -0.37513,1.951964 -0.37047,1.956618 -0.46542,1.955687 -0.37048,1.952895 -0.37512,1.956618 -0.46542,1.861673 -0.37047,1.951966 -0.46542,1.86167 -0.46542,1.86167 -0.46542,1.77138 -0.46542,1.86168 -0.46541,1.76672 -0.46542,1.77046 -0.46542,1.76765 -0.46542,1.67644 -0.56036,1.67551 -0.46542,1.67271 -0.46542,1.67643 -0.55571,1.67644 -0.46542,1.58149 -0.56036,1.58149 -0.56036,1.58522 -0.55571,1.48747 -0.46542,1.4912 -0.56036,1.48655 -0.55571,1.4912 -0.56037,1.39625 -0.56036,1.39626 -0.65065,1.39625 -0.55571,1.30131 -0.56037,1.39626 -0.56036,1.21101 -0.65066,1.30504 -0.55571,1.20729 -0.56036,1.21102 -0.65065,1.21102 -0.56037,1.11607 -0.65065,1.11607 -0.56036,1.02579 -0.65066,1.11607 -0.65065,1.02578 -0.56037,0.93084 -0.65065,1.02112 -0.65066,0.84055 -0.65065,0.93084 -0.56036,0.83589 -0.65066,0.83961 -0.65065,0.83682 -0.65066,0.7456 -0.65531,0.74467 -0.65065,0.65159 -0.65066,0.65065 -0.65065,0.65066 -0.56036,0.56036 -0.65066,0.55571 -0.65065,0.56036 -0.65066,0.46542 -0.65531,0.46542 -0.65065,0.46542 -0.65066,0.37047 m 80.33211,-157.8670541 0,2.1409236 -0.0949,2.2330765 0,2.232146 -0.0903,2.141854 -0.095,2.235869 -0.0949,2.233076 -0.18523,2.141855 -0.0903,2.232145 -0.18989,2.235869 -0.18524,2.233077 -0.18524,2.141854 -0.28018,2.232146 -0.28018,2.235869 -0.18524,2.233076 -0.37047,2.141855 -0.28018,2.232145 -0.28018,2.141855 -0.37048,2.232145 -0.37512,2.141855 -0.37048,2.235869 -0.46541,2.138131 -0.37048,2.2368 -0.46541,2.140923 -0.46542,2.138131 -0.46542,2.141855 -0.56036,2.141854 -0.46542,2.141855 -0.56037,2.046909 -0.55571,2.141854 -0.56036,2.140924 -0.65065,2.04784 -0.56037,2.046909 -0.65065,2.046909 -0.65066,2.046909 -0.65065,2.050633 -0.65066,2.04784 -0.7456,1.951964 -0.65065,2.050632 -0.7456,1.952895 -0.7456,1.956618 -0.83589,1.951964 -0.7456,1.956618 -0.7456,1.861673 -0.83589,1.861674 -0.84055,1.86167 -0.83589,1.86167 -0.84054,1.86168 -0.93084,1.86167 -0.83589,1.76673 -0.93084,1.77138 -0.93083,1.76673 -0.93084,1.67643 -0.93084,1.67644 -0.93083,1.76673 -1.02578,1.58149 -0.93084,1.67643 -1.02113,1.58149 -1.02578,1.58522 -1.02113,1.58242 -1.02578,1.58149 -1.02578,1.49027 -1.02113,1.48748 -1.11607,1.4912 -1.02578,1.39625 -1.11608,1.39626 -1.11607,1.39625 -1.12072,1.39625 -1.11608,1.30131 -1.11607,1.30504 -1.11607,1.30224 -1.11608,1.21101 -1.21101,1.21009 -1.11608,1.2073 -1.21102,1.11979 -1.21101,1.11701 -1.11608,1.11607 -1.21101,1.02485 -1.21102,1.02206 -1.21102,1.02578 -1.20636,0.93084 -1.21102,0.93083 -1.21102,0.93084 -1.30131,0.83589 -1.21102,0.83961 -1.21102,0.83683 -1.30131,0.7456 -1.21101,0.74467 -1.21102,0.74187 -1.30131,0.65438 -1.21102,0.65159 -1.30596,0.65065 -1.30131,0.55943 -1.21102,0.55664 -1.30131,0.46542 -1.30596,0.46542 -1.20637,0.46542 -1.30596,0.37419 -1.30131,0.37141 -1.21102,0.37047 M 26.859909,12.929387 l 1.305964,-0.280182 1.301309,-0.370473 1.396254,-0.280181 1.30131,-0.280182 1.396254,-0.370473 1.4912,-0.280182 1.396255,-0.280182 1.491199,-0.276458 L 39.4262,10.231823 41.007691,9.9516414 42.593836,9.6714596 44.175327,9.3912779 45.756818,9.1148195 47.433254,8.8355686 49.014745,8.6494013 50.691182,8.3701504 52.457909,8.0899687 54.134345,7.9047322 55.901073,7.6245505 57.672454,7.439314 59.439182,7.1591323 61.300854,6.9738959 63.072236,6.6937141 64.933909,6.5084777 66.795582,6.3223104 68.747545,6.1333506 70.609218,5.9481142 72.565836,5.7628778 74.5178,5.5776413 76.474418,5.391474 78.431036,5.2025143 80.383,5.0172778 82.429909,4.8320414 84.386527,4.646805 86.433436,4.55186 88.480345,4.3666236 90.6222,4.2716786 l 2.046909,-0.1852364 2.051563,-0.091222 2.137201,-0.1889598 2.141854,-0.090291 2.046913,-0.094945 2.14185,-0.091222 2.14186,-0.1889598 2.14185,-0.090291 2.23215,-0.094945 2.14185,0 2.14185,-0.091222 2.23215,-0.094014 2.14185,-0.094945 2.23215,0 2.14185,-0.090291 2.2368,-0.094945 4.4643,0 2.14185,-0.091222 20.01298,0 2.2368,0.091222 4.374,0 2.23215,0.094945 2.2368,0.090291 2.1372,0 2.2368,0.094945 2.14185,0.094014 2.23215,0.091222 2.14185,0 2.14186,0.094945 2.1372,0.090291 2.14185,0.1889598 2.14185,0.091222 2.14186,0.094945 2.14185,0.090291 2.04691,0.1889598 2.14186,0.091222 2.04691,0.1852364 2.04691,0.094945 2.0469,0.1852364 2.04691,0.094945 2.05157,0.1852364 1.95196,0.1852364 2.04691,0.1852365 1.95662,0.1889597 1.95662,0.1861673 1.95196,0.1852365 1.86167,0.1852364 1.95662,0.1852364 1.86167,0.1889598 1.86168,0.1861673 1.86167,0.1852364 1.86167,0.2801818 M 32.444927,56.213278 l 1.305964,-0.280182 1.206364,-0.276459 1.305963,-0.27925 1.301309,-0.280182 1.305964,-0.280182 1.396254,-0.280182 1.396255,-0.276458 1.396254,-0.279251 1.396255,-0.280182 1.486546,-0.280181 1.491199,-0.280182 1.486546,-0.276459 1.4912,-0.188959 1.581491,-0.276459 1.581491,-0.279251 1.586145,-0.186167 1.671782,-0.279251 1.586145,-0.186167 1.671782,-0.279251 1.676437,-0.186167 1.676436,-0.279251 1.766727,-0.186167 1.771382,-0.18896 1.676436,-0.185237 1.861673,-0.185236 1.766727,-0.185237 1.766728,-0.186167 1.861673,-0.18896 1.861672,-0.185236 1.861673,-0.185237 1.861673,-0.185236 1.861672,-0.186167 1.956618,-0.09401 1.956618,-0.185236 1.861673,-0.186167 1.951964,-0.09401 1.956618,-0.185236 2.046909,-0.09495 1.956618,-0.09122 1.951964,-0.188959 2.046913,-0.09029 2.05156,-0.09495 1.95196,-0.09122 2.04691,-0.09401 2.05157,-0.09495 2.04691,-0.09029 2.0469,-0.09495 2.14186,-0.09122 2.04691,-0.09401 2.04691,0 2.14185,-0.09495 2.04691,0 2.14186,-0.09029 2.0469,0 2.14186,-0.09495 4.18876,0 2.14186,-0.09122 10.51938,0 2.1372,0.09122 4.18876,0 2.14186,0.09495 2.14185,0 2.04691,0.09029 2.14185,0 2.04691,0.09495 2.04691,0 2.14186,0.09401 2.04691,0.09122 2.05156,0.09495 2.04691,0.09029 2.04691,0.09495 2.04691,0.09401 2.04691,0.09122 1.95661,0.09495 2.04691,0.09029 1.95662,0.188959 2.04691,0.09122 1.95662,0.09495 1.95196,0.185236 1.95662,0.09401 1.95196,0.186167 1.86168,0.185236 1.95662,0.09401 1.86167,0.186167 1.95662,0.185236 1.86167,0.185237 1.76673,0.185236 1.86167,0.18896 1.86167,0.186167 1.76673,0.185237 1.77138,0.185236 1.76673,0.185237 1.77138,0.18896 m -169.226981,46.167621 1.021127,-0.280181 1.025782,-0.276459 1.116073,-0.279251 1.116073,-0.186167 1.120727,-0.279251 1.116072,-0.186167 1.211019,-0.279251 1.206363,-0.186167 1.211019,-0.279251 1.211018,-0.186168 1.301309,-0.27925 1.305963,-0.186168 1.30131,-0.18896 1.305963,-0.276458 1.301309,-0.18896 1.396255,-0.185236 1.396254,-0.185237 1.396255,-0.185236 1.396254,-0.186167 1.396255,-0.18896 1.4912,-0.185237 1.396254,-0.185236 1.486546,-0.185236 1.4912,-0.186168 1.581491,-0.188959 1.4912,-0.185237 1.581491,-0.09122 1.486545,-0.18896 1.586145,-0.185236 1.581491,-0.09122 1.581491,-0.18896 1.676437,-0.09029 1.581491,-0.186167 1.676436,-0.09401 1.581491,-0.09494 1.676436,-0.185236 1.676436,-0.09122 1.67178,-0.09401 1.67644,-0.09494 1.77138,-0.09029 1.67178,-0.186168 1.67644,-0.09401 1.77138,0 1.76673,-0.09494 1.67643,-0.09029 1.76673,-0.09495 1.77138,-0.09122 1.76673,0 1.76673,-0.09401 1.77138,-0.09495 1.76673,0 1.77138,-0.09029 3.53345,0 1.86168,-0.09494 7.17116,0 1.76673,-0.09122 1.76672,0 1.86168,0.09122 7.17116,0 1.76673,0.09494 3.53811,0 1.76672,0.09029 1.86168,0 1.77138,0.09495 1.76673,0.09401 1.67643,0 1.76673,0.09122 1.77138,0.09495 1.76673,0.09029 1.67643,0.09494 1.76673,0 1.67644,0.09401 1.76673,0.186168 1.67643,0.09029 1.67644,0.09494 1.67643,0.09401 1.67644,0.09122 1.67178,0.185236 1.67644,0.09494 1.58149,0.09401 1.67644,0.186167 1.58149,0.09029 1.58614,0.18896 1.58149,0.09122 1.58149,0.185236 1.5815,0.18896 1.4912,0.09122 1.58149,0.185237 1.4912,0.188959 1.48654,0.186168 1.4912,0.185236 m -132.458943,38.444469 0.7456,-0.18616 0.835891,-0.18896 0.7456,-0.18524 0.835891,-0.18524 0.840545,-0.18523 0.835891,-0.18617 0.840546,-0.18896 0.835891,-0.18524 0.930836,-0.0912 0.835891,-0.18896 0.930836,-0.18523 0.930837,-0.18524 0.930836,-0.0949 1.025782,-0.18523 0.930836,-0.18524 1.025782,-0.0949 1.021127,-0.18524 0.930837,-0.0912 1.025781,-0.18896 1.116073,-0.0903 1.025782,-0.18617 1.021127,-0.094 1.116073,-0.18523 1.120727,-0.0949 1.021128,-0.0912 1.116072,-0.094 1.120727,-0.18524 1.206368,-0.0949 1.12072,-0.0912 1.11608,-0.094 1.21101,-0.095 1.11608,-0.0903 1.21102,-0.18617 1.20636,-0.094 1.21102,-0.0949 1.11607,0 1.21102,-0.0903 1.30596,-0.0949 1.20637,-0.0912 1.21101,-0.094 1.21102,-0.0949 1.30131,0 1.21102,-0.0903 1.30596,-0.0949 1.20637,0 1.30596,-0.0912 1.30131,0 1.21102,-0.094 1.30131,0 1.30596,-0.0949 1.30131,0 1.30596,-0.0903 3.90858,0 1.30131,-0.0949 11.7304,0 1.30131,0.0949 3.90858,0 1.21102,0.0903 1.30597,0 1.3013,0.0949 1.30131,0 1.30597,0.094 1.21102,0 1.3013,0.0912 1.30131,0 1.21102,0.0949 1.30597,0.0903 1.20636,0 1.21102,0.0949 1.30596,0.094 1.20637,0.0912 1.21101,0.0949 1.21102,0.0903 1.21102,0 1.21102,0.0949 1.11607,0.094 1.21102,0.18617 1.20636,0.0903 1.12073,0.095 1.20636,0.094 1.12073,0.0912 1.11607,0.0949 1.11608,0.18524 1.11607,0.094 1.11607,0.0912 1.02578,0.0949 1.11608,0.18523 m -82.6592,26.99426 0.37512,-0.095 0.37048,-0.0903 0.46541,-0.0949 0.37513,-0.0912 0.46542,-0.094 0.46542,-0.0949 0.46542,-0.0903 0.46541,-0.0949 0.46542,-0.0912 0.46542,-0.094 0.46542,-0.0949 0.46542,-0.0903 0.46541,-0.0949 0.55571,-0.0912 0.46542,0 0.56037,-0.094 0.55571,-0.0949 0.46541,-0.0903 0.56037,-0.095 0.56036,0 0.55571,-0.0912 0.56036,-0.094 0.55571,-0.095 0.56037,0 0.56036,-0.0903 0.65065,-0.095 0.55571,0 0.56037,-0.0912 0.65065,-0.094 0.56037,0 0.65065,-0.095 0.65065,0 0.56037,-0.0903 0.65065,-0.0949 0.65066,0 0.56036,-0.0912 1.30131,0 0.65065,-0.094 0.65531,0 0.65066,-0.095 1.30131,0 0.65065,-0.0903 1.39626,0 0.6553,-0.0949 2.04691,0 0.65066,-0.0912 4.09382,0 0.65531,-0.094 3.44316,0 0.65065,0.094 4.18877,0 0.65065,0.0912 2.04691,0 0.65531,0.0949 1.30131,0 0.65065,0.0903 1.30597,0 0.65065,0.095 0.65066,0 0.65065,0.094 1.30596,0 0.65066,0.0912 0.55571,0 0.65531,0.0949 0.65065,0.0903 0.55571,0 0.65531,0.095 0.65065,0 0.55571,0.094 0.56037,0.0912 0.65065,0 0.56037,0.095 0.55571,0.0903 0.56036,0 0.56036,0.095"
   style="fill:none;stroke:#000000;stroke-width:0.46541819;stroke-linecap:butt;stroke-linejoin:miter;stroke-miterlimit:10;stroke-opacity:1;stroke-dasharray:0.93083636, 1.39625454;stroke-dashoffset:0"
   id="path108"
   inkscape:connector-curvature="0" /><path
   d="M 14.759036,14.510878 3.9641272,10.136878 15.504636,8.5553868 M 141.63296,26.891932 3.9641272,10.136878"
   style="fill:none;stroke:#000000;stroke-width:1.39625454;stroke-linecap:butt;stroke-linejoin:miter;stroke-miterlimit:10;stroke-opacity:1;stroke-dasharray:none"
   id="path112"
   inkscape:connector-curvature="0" /><path
   d="M 14.759036,14.510878 3.9641272,10.136878 15.504636,8.5553868"
   style="fill:none;stroke:#000000;stroke-width:1.39625454;stroke-linecap:butt;stroke-linejoin:miter;stroke-miterlimit:10;stroke-opacity:1;stroke-dasharray:none"
   id="path116"
   inkscape:connector-curvature="0" /><path
   d="m 226.33907,2.7851322 11.63546,0.1852365 -10.2392,5.5850181 M 141.63296,26.891932 237.97453,2.9703687"
   style="fill:none;stroke:#000000;stroke-width:1.39625454;stroke-linecap:butt;stroke-linejoin:miter;stroke-miterlimit:10;stroke-opacity:1;stroke-dasharray:none"
   id="path120"
   inkscape:connector-curvature="0" /><path
   d="m 226.33907,2.7851322 11.63546,0.1852365 -10.2392,5.5850181"
   style="fill:none;stroke:#000000;stroke-width:1.39625454;stroke-linecap:butt;stroke-linejoin:miter;stroke-miterlimit:10;stroke-opacity:1;stroke-dasharray:none"
   id="path124"
   inkscape:connector-curvature="0" /><path
   d="m 144.61071,181.13059 -2.97775,11.26498 -2.97774,-11.26498 m 2.97774,-154.238658 0,165.503638"
   style="fill:none;stroke:#000000;stroke-width:1.39625454;stroke-linecap:butt;stroke-linejoin:miter;stroke-miterlimit:10;stroke-opacity:1;stroke-dasharray:none"
   id="path128"
   inkscape:connector-curvature="0" /><path
   d="m 144.61071,181.13059 -2.97775,11.26498 -2.97774,-11.26498"
   style="fill:none;stroke:#000000;stroke-width:1.39625454;stroke-linecap:butt;stroke-linejoin:miter;stroke-miterlimit:10;stroke-opacity:1;stroke-dasharray:none"
   id="path132"
   inkscape:connector-curvature="0" /><path
   inkscape:connector-curvature="0"
   id="path134"
   style="fill:#000000;fill-opacity:1;fill-rule:nonzero;stroke:none"
   d="m 177.70287,89.166742 c 0,1.618724 -1.31248,2.931203 -2.93027,2.931203 -1.62245,0 -2.93493,-1.312479 -2.93493,-2.931203 0,-1.621517 1.31248,-2.933997 2.93493,-2.933997 1.61779,0 2.93027,1.31248 2.93027,2.933997" /><path
   d="m 174.7726,89.166746 0,-81.0767773 -33.13964,18.8019633 33.13964,62.274814"
   style="fill:none;stroke:#000000;stroke-width:0.69812727;stroke-linecap:butt;stroke-linejoin:miter;stroke-miterlimit:10;stroke-opacity:1;stroke-dasharray:1.86167272, 2.79250908;stroke-dashoffset:0"
   id="path138"
   inkscape:connector-curvature="0" /><path
   d="m 172.44551,116.43746 -4.93437,10.2392 -0.7456,-11.35527 m 8.00706,-26.154644 -7.26146,37.509914"
   style="fill:none;stroke:#000000;stroke-width:1.39625454;stroke-linecap:butt;stroke-linejoin:miter;stroke-miterlimit:10;stroke-opacity:1;stroke-dasharray:none"
   id="path142"
   inkscape:connector-curvature="0" /><path
   d="m 172.44551,116.43746 -4.93437,10.2392 -0.7456,-11.35527"
   style="fill:none;stroke:#000000;stroke-width:1.39625454;stroke-linecap:butt;stroke-linejoin:miter;stroke-miterlimit:10;stroke-opacity:1;stroke-dasharray:none"
   id="path146"
   inkscape:connector-curvature="0" /><path
   d="m 203.81376,87.676477 11.07509,3.628401 -11.45021,2.422036 m -28.66604,-4.560168 40.11625,2.138132"
   style="fill:none;stroke:#000000;stroke-width:1.39625454;stroke-linecap:butt;stroke-linejoin:miter;stroke-miterlimit:10;stroke-opacity:1;stroke-dasharray:none"
   id="path150"
   inkscape:connector-curvature="0" /><path
   d="m 203.81376,87.676477 11.07509,3.628401 -11.45021,2.422036"
   style="fill:none;stroke:#000000;stroke-width:1.39625454;stroke-linecap:butt;stroke-linejoin:miter;stroke-miterlimit:10;stroke-opacity:1;stroke-dasharray:none"
   id="path154"
   inkscape:connector-curvature="0" /><path
   d="m 186.12787,105.82779 1.86167,8.19229 -5.67996,-6.14538 m -7.53698,-18.707954 13.21694,24.853334"
   style="fill:none;stroke:#000000;stroke-width:1.39625454;stroke-linecap:butt;stroke-linejoin:miter;stroke-miterlimit:10;stroke-opacity:1;stroke-dasharray:none"
   id="path158"
   inkscape:connector-curvature="0" /><path
   d="m 186.12787,105.82779 1.86167,8.19229 -5.67996,-6.14538"
   style="fill:none;stroke:#000000;stroke-width:1.39625454;stroke-linecap:butt;stroke-linejoin:miter;stroke-miterlimit:10;stroke-opacity:1;stroke-dasharray:none"
   id="path162"
   inkscape:connector-curvature="0" /><path
   inkscape:connector-curvature="0"
   id="path164"
   style="fill:#000000;fill-opacity:1;fill-rule:nonzero;stroke:none"
   d="m 95.356434,118.3829 c 0,1.6178 -1.316203,2.93121 -2.933997,2.93121 -1.617793,0 -2.931203,-1.31341 -2.931203,-2.93121 0,-1.61779 1.31341,-2.93399 2.931203,-2.93399 1.617794,0 2.933997,1.3162 2.933997,2.93399" /><path
   d="M 90.073006,118.85205 175.52472,88.508645"
   style="fill:none;stroke:#000000;stroke-width:0.69812727;stroke-linecap:butt;stroke-linejoin:miter;stroke-miterlimit:10;stroke-opacity:1;stroke-dasharray:2.79250908, 2.79250908, 0.93083636, 2.79250908;stroke-dashoffset:0"
   id="path168"
   inkscape:connector-curvature="0" /><path
   d="m 56.366491,108.6203 0.189891,0.46541 0.275527,0.55944 0.189891,0.55664 0.185236,0.56036 0.280182,0.46542 0.185236,0.55571 0.185237,0.56036 0.280182,0.46542 0.185236,0.55943 0.280182,0.55664 0.185236,0.46542 0.280182,0.56036 0.185236,0.55571 0.280182,0.46542 0.185237,0.56036 0.185236,0.46542 0.280182,0.55944 0.280181,0.55664 0.185237,0.46541 0.280182,0.56037 0.185236,0.46542 0.280182,0.5557 0.185236,0.46542 0.280182,0.56037 0.185236,0.46541 0.280182,0.55944 0.280182,0.46542 0.185236,0.55664 0.280182,0.46541 0.185237,0.46542 0.280181,0.56037 0.275528,0.46541 0.18989,0.55571 0.275528,0.46542 0.280182,0.46542 0.280181,0.56036 0.185237,0.46542 0.280182,0.46542 0.280181,0.55943 0.185237,0.46542 0.280182,0.46542 0.280181,0.46542 0.275528,0.55664 0.189891,0.46541 0.275527,0.46542 0.280182,0.46542 0.280182,0.56036 0.280181,0.46542 0.280182,0.46542 0.185236,0.46542 0.280182,0.46542 0.275528,0.46542 0.280182,0.46541 0.280181,0.55571 0.280182,0.46542 0.280182,0.46542 0.275527,0.46542 0.189891,0.46542 0.275528,0.46541 0.280181,0.46542 0.280182,0.46542 0.280182,0.46542 0.280182,0.46542 0.275527,0.46541 0.280182,0.46542 0.280182,0.46542 0.280181,0.37513 0.280182,0.46542 0.275528,0.46541 0.280181,0.46542 0.280182,0.46542 0.280182,0.46542 0.280182,0.46542 0.275527,0.37047 0.280182,0.46542 0.280182,0.46542 0.280181,0.46541 0.370473,0.3742 0.280182,0.46542 0.280182,0.46542 0.280181,0.46542 0.275528,0.3714 0.280182,0.46542 0.280182,0.46542 0.280181,0.37047 0.370473,0.46542 0.280182,0.37512 0.280182,0.46542 0.280181,0.46542 0.275528,0.37047 0.375127,0.46542 m -0.375127,-0.46542 0.280182,0 0.375127,-0.0912 0.275527,0 0.280182,-0.094 0.560364,0 0.280181,-0.095 0.55571,0 0.375127,-0.0903 0.275527,0 0.280182,-0.095 0.560363,0 0.280182,-0.0912 0.370473,0 0.280182,-0.094 0.555709,0 0.375127,-0.095 0.555709,0 0.280182,-0.0903 0.650655,0 0.280182,-0.0949 0.650654,0 0.280182,-0.0912 0.280182,0 0.370473,-0.094 0.560363,0 0.370473,-0.095 0.560363,0 0.370473,-0.0903 0.560364,0 0.370473,-0.0949 0.930836,0 0.280182,-0.0912 0.650654,0 0.280182,-0.094 0.650655,0 0.375127,-0.0949 0.650654,0 0.280182,-0.0903 1.021128,0 0.280181,-0.095 0.650655,0 0.280182,-0.0912 1.025781,0 0.280182,-0.094 0.740946,0 0.28018,-0.0949 1.02578,0 0.28019,-0.0903 1.02112,0 0.37513,-0.095 0.93084,0 0.37047,-0.0912 1.02578,0 0.27553,-0.094 1.39625,0 0.28018,-0.095 1.02579,0 m -12.941422,-44.49119 0.189891,0.55664 0.09029,0.46542 0.09494,0.56037 0.09029,0.55571 0.189891,0.56036 0.09029,0.55943 0.09494,0.55664 0.185237,0.46542 0.09495,0.56036 0.09029,0.55571 0.09495,0.56037 0.185237,0.46541 0.09495,0.55944 0.09029,0.55664 0.185237,0.56036 0.09494,0.46542 0.09495,0.55571 0.185237,0.56036 0.09029,0.46542 0.189891,0.55943 0.09029,0.55664 0.09495,0.46542 0.185236,0.56036 0.09495,0.46542 0.185236,0.55571 0.09029,0.56037 0.09495,0.46541 0.185236,0.55944 0.09495,0.46541 0.185237,0.55664 0.09494,0.46542 0.09029,0.56037 0.185237,0.46541 0.09495,0.55571 0.185236,0.46542 0.09495,0.56037 0.18524,0.46541 0.0949,0.55944 0.18524,0.46541 0.0903,0.46542 0.18989,0.55664 0.0903,0.46542 0.18524,0.56036 0.0949,0.46542 0.18524,0.46542 0.0949,0.55571 0.18524,0.46542 0.0949,0.46542 0.18523,0.46541 0.0903,0.56037 0.18989,0.46542 0.0903,0.46541 0.18524,0.46542 0.18989,0.55944 0.0903,0.46541 0.18524,0.46542 0.0949,0.46542 0.18524,0.46542 0.0949,0.55664 0.18523,0.46542 0.18524,0.46541 0.0949,0.46542 0.18524,0.46542 0.0949,0.46542 0.18523,0.46542 0.18524,0.46542 0.0949,0.46541 0.18524,0.46542 0.0903,0.46542 0.18989,0.46542 0.18524,0.46542 0.0903,0.46541 0.18989,0.46542 0.18524,0.46542 0.0903,0.46542 0.18989,0.46542 0.18524,0.46542 0.0903,0.46541 0.18989,0.46542 0.18523,0.3742 0.0903,0.46542 0.1899,0.46541 0.18523,0.46542 0.0903,0.46542 0.18989,0.3714 0.18524,0.46542 0.18524,0.46542 0.0949,0.37047 0.18524,0.46542 0.18523,0.46542 0.0949,0.46542 m -51.851312,-41.32727 0.375127,-0.0949 0.370473,-0.0903 0.465418,0 0.375127,-0.0949 0.370473,0 0.465418,-0.0912 0.370473,0 0.375127,-0.094 0.465418,0 0.370473,-0.095 0.375127,0 0.465418,-0.0903 0.370473,0 0.370473,-0.0949 0.465418,0 0.375127,-0.0912 0.465419,0 0.370472,-0.094 0.375127,-0.0949 0.465419,0 0.370472,-0.0903 0.465419,0 0.370473,-0.0949 0.840545,0 0.465418,-0.0912 0.370473,0 0.465418,-0.094 0.375127,0 0.465418,-0.0949 0.465418,0 0.370473,-0.0903 0.465418,0 0.370473,-0.0949 0.465419,0 0.375127,-0.0912 0.465418,0 0.465418,-0.094 0.370473,0 0.465418,-0.0949 0.840545,0 0.465418,-0.0903 0.465419,0 0.370472,-0.0949 0.465419,0 0.465418,-0.0912 0.835891,0 0.465418,-0.094 0.465418,0 0.375127,-0.0949 0.930837,0 0.465418,-0.0903 0.370473,0 0.465418,-0.0949 0.930836,0 0.465418,-0.0912 0.375127,0 0.465419,-0.094 0.930836,0 0.465418,-0.0949 0.465418,0 0.370473,-0.0903 0.930837,0 0.465418,-0.0949 0.930836,0 0.465418,-0.0912 0.930837,0 0.465418,-0.094 0.835891,0 0.465418,-0.0949 0.930836,0 0.465419,-0.0903 0.930836,0 0.465418,-0.0949 0.930837,0 0.465418,-0.0912 0.930836,0 0.465418,-0.094 m 8.752657,-15.544036 0.0903,0.465418 0.0949,0.370473 0.0949,0.465418 0.0903,0.465418 0.0949,0.374196 0.0903,0.465419 0.18989,0.465418 0.0903,0.371403 0.0949,0.465419 0.0903,0.370472 0.0949,0.465419 0.0949,0.465418 0.0903,0.375127 0.095,0.465418 0.0903,0.370473 0.0949,0.465418 0.0949,0.465418 0.0903,0.374197 0.0949,0.465418 0.0903,0.371403 0.1899,0.465419 0.0903,0.370472 0.0949,0.465419 0.0903,0.375127 0.0949,0.465416 0.0949,0.37047 0.0903,0.3742 0.0949,0.46542 0.0903,0.3714 0.18989,0.46542 0.0903,0.37047 0.0949,0.46542 0.0903,0.37513 0.0949,0.37047 0.0949,0.46542 0.18524,0.3742 0.0903,0.3714 0.0949,0.46542 0.095,0.37047 0.0903,0.37513 0.0949,0.46542 0.18524,0.37047 0.0949,0.3742 0.0903,0.46541 0.0949,0.37141 0.0903,0.37047 0.18989,0.37513 0.0903,0.46542 0.0949,0.37047 0.0903,0.37419 0.18989,0.37141 0.0903,0.46542 0.0949,0.37047 0.0903,0.37513 0.18989,0.37047 0.0903,0.3742 0.0949,0.3714 0.0903,0.46542 0.18989,0.37047 0.0903,0.37513 0.0949,0.37047 0.0903,0.3742 0.18989,0.3714 0.0903,0.37047 0.0949,0.37513 0.18524,0.37047 0.0949,0.3742 0.0903,0.3714 0.0949,0.37048 0.18524,0.37512 0.0949,0.37048 0.0903,0.37419 0.18524,0.37141 0.0949,0.37047 0.0949,0.37513 0.18524,0.37047 0.0903,0.37419 0.0949,0.37141 0.18524,0.37047 0.0949,0.28018 0.0903,0.3742 0.18989,0.3714 0.0903,0.37048 0.18524,0.37512 0.0949,0.37048 0.095,0.28018 0.18523,0.37047 0.0903,0.37513 0.0949,0.37047 0.18524,0.28018 0.0949,0.37047 m -41.517166,-33.044686 0.280182,0 0.370473,-0.09029 0.280182,0 0.375127,-0.09495 0.275527,0 0.375127,-0.09122 0.650655,0 0.280182,-0.09401 0.280181,0 0.370473,-0.09494 0.280182,0 0.370473,-0.09029 0.650654,0 0.280182,-0.09495 0.375127,0 0.370473,-0.09122 0.650655,0 0.280181,-0.09401 0.370473,0 0.280182,-0.09494 0.7456,0 0.280182,-0.09029 0.370473,0 0.280181,-0.09494 0.7456,0 0.280182,-0.09122 0.740946,0 0.280181,-0.09401 0.375128,0 0.370472,-0.09495 0.650655,0 0.375127,-0.09029 0.650655,0 0.370473,-0.09494 0.650654,0 0.375127,-0.09122 0.7456,0 0.275528,-0.09401 0.375127,0 0.370473,-0.09495 1.025781,0 0.370473,-0.09029 0.7456,0 0.370473,-0.09494 0.655309,0 0.370473,-0.09122 0.7456,0 0.370472,-0.09401 0.7456,0 0.280182,-0.09494 1.116073,0 0.370473,-0.09029 0.7456,0 0.375127,-0.09494 1.116073,0 0.370472,-0.09122 0.65066,0 0.37513,-0.09401 1.11607,0 0.37047,-0.09494 1.12073,0 0.37047,-0.09029 1.11607,0 M 56.366491,108.6203 73.401727,92.235714 m 34.721123,57.246436 6.7011,-24.57222 M 95.461618,104.99096 104.67969,89.352914"
   style="fill:none;stroke:#000000;stroke-width:0.69812727;stroke-linecap:butt;stroke-linejoin:miter;stroke-miterlimit:10;stroke-opacity:1;stroke-dasharray:none"
   id="path172"
   inkscape:connector-curvature="0" /><path
   d="m 92.018454,127.05179 0.280182,0 0.185237,-0.0949 0.465418,0 0.280181,-0.0912 0.465419,0 0.185236,-0.094 0.7456,0 0.185236,-0.0949 0.560364,0 0.185236,-0.0903 0.465419,0 0.280181,-0.0949 0.7456,0 0.185237,-0.0912 0.465418,0 0.280182,-0.094 0.740945,0 0.280182,-0.0949 0.465418,0 0.185237,-0.0903 0.745598,0 0.28018,-0.0949 0.7456,0 0.28019,-0.0912 0.74094,0 0.28018,-0.094 0.7456,0 0.28018,-0.095 0.7456,0 0.27553,-0.0903 0.7456,0 0.28018,-0.0949 0.7456,0 0.28019,-0.0912 1.02112,0 0.28018,-0.094 1.02579,0 0.27552,-0.0949 0.84055,0 0.28018,-0.0903 1.02113,0 0.28018,-0.0949 1.30131,0 0.28018,-0.0912 1.11607,0 0.28019,-0.094 0.28018,0 M 79.6374,152.08942 92.018454,127.05179 m -18.616727,-34.816076 0.185237,0.465418 0.18989,0.375127 0.185237,0.465418 0.185236,0.370473 0.09494,0.465418 0.185237,0.465419 0.185236,0.374196 0.185237,0.465418 0.185236,0.371404 0.189891,0.465418 0.185236,0.370473 0.185237,0.465418 0.185236,0.375127 0.185237,0.465418 0.18989,0.370473 0.185237,0.465418 0.185236,0.374196 0.185236,0.465419 0.185237,0.371405 0.18989,0.37047 0.185237,0.46542 0.185236,0.37513 0.185237,0.46541 0.185236,0.37048 0.189891,0.46542 0.185236,0.37419 0.185237,0.37141 0.280181,0.46541 0.185237,0.37048 0.185236,0.37512 0.185237,0.46542 0.18989,0.37047 0.185237,0.3742 0.185236,0.46542 0.185237,0.3714 0.280181,0.37048 0.185237,0.37512 0.185236,0.46542 0.189891,0.37047 0.185236,0.3742 0.185237,0.3714 0.280182,0.46542 0.185236,0.37047 0.185236,0.37513 0.185237,0.37047 0.280182,0.3742 0.185236,0.3714 0.189891,0.46542 0.185236,0.37048 0.280182,0.37512 0.185236,0.37048 0.185237,0.37419 0.185236,0.37141 0.280182,0.37047 0.185236,0.37513 0.185237,0.37047 0.280181,0.37419 0.185237,0.37141 0.189891,0.37047 0.275527,0.37513 0.189891,0.37047 0.185236,0.3742 0.280182,0.3714 0.185236,0.37047 0.280182,0.37513 0.185237,0.37047 0.185236,0.3742 0.280182,0.3714 0.185236,0.37048 0.280182,0.37512 0.185236,0.37048 0.185237,0.37419 0.280181,0.27646 0.185237,0.37513 0.280182,0.37047 0.185236,0.3742 0.280182,0.3714 0.185236,0.37047 0.280182,0.28019 0.185236,0.37419 0.280182,0.37141 0.185237,0.37047 0.280181,0.28018 0.185237,0.3742 0.280182,0.3714 0.185236,0.28018 0.280182,0.37047 0.185236,0.3742 0.280182,0.27646 0.185236,0.37513 0.280182,0.37047"
   style="fill:none;stroke:#000000;stroke-width:0.69812727;stroke-linecap:butt;stroke-linejoin:miter;stroke-miterlimit:10;stroke-opacity:1;stroke-dasharray:3.72334544, 1.86167272;stroke-dashoffset:0"
   id="path176"
   inkscape:connector-curvature="0" />
<text
   xml:space="preserve"
   style="font-size:12px;font-style:normal;font-variant:normal;font-weight:normal;font-stretch:normal;line-height:125%;letter-spacing:0px;word-spacing:0px;fill:#000000;fill-opacity:1;stroke:none;font-family:UnPilgi;-inkscape-font-specification:UnPilgi"
   x="161.99744"
   y="142.27589"
   id="text3219"
   sodipodi:linespacing="125%"
   transform="matrix(0.8,0,0,-0.8,0,207.00004)"><tspan
     sodipodi:role="line"
     id="tspan3221"
     x="161.99744"
     y="142.27589"
     style="-inkscape-font-specification:UnPilgi;font-family:UnPilgi;font-weight:normal;font-style:normal;font-stretch:normal;font-variant:normal">l</tspan></text>

<flowRoot
   xml:space="preserve"
   id="flowRoot3223"
   style="fill:black;stroke:none;stroke-opacity:1;stroke-width:1px;stroke-linejoin:miter;stroke-linecap:butt;fill-opacity:1;font-family:Arial;font-style:normal;font-weight:normal;font-size:12px;line-height:125%;letter-spacing:0px;word-spacing:0px;-inkscape-font-specification:Sans;font-stretch:normal;font-variant:normal"><flowRegion
     id="flowRegion3225"><rect
       id="rect3227"
       width="23.376844"
       height="15.584563"
       x="-132.05867"
       y="81.167999" /></flowRegion><flowPara
     id="flowPara3229" /></flowRoot><text
   xml:space="preserve"
   style="font-size:12px;font-style:normal;font-variant:normal;font-weight:normal;font-stretch:normal;line-height:125%;letter-spacing:0px;word-spacing:0px;fill:#000000;fill-opacity:1;stroke:none;font-family:Arial;-inkscape-font-specification:Sans"
   x="11.073242"
   y="232.91243"
   id="text3231"
   sodipodi:linespacing="125%"
   transform="matrix(0.8,0,0,-0.8,0,207.00004)"><tspan
     sodipodi:role="line"
     id="tspan3233"
     x="11.073242"
     y="232.91243">X</tspan></text>

<text
   xml:space="preserve"
   style="font-size:12px;font-style:normal;font-variant:normal;font-weight:normal;font-stretch:normal;line-height:125%;letter-spacing:0px;word-spacing:0px;fill:#000000;fill-opacity:1;stroke:none;font-family:Arial;-inkscape-font-specification:Sans"
   x="282.57275"
   y="241.11484"
   id="text3235"
   sodipodi:linespacing="125%"
   transform="matrix(0.8,0,0,-0.8,0,207.00004)"><tspan
     sodipodi:role="line"
     id="tspan3237"
     x="282.57275"
     y="241.11484">Y</tspan></text>

<text
   xml:space="preserve"
   style="font-size:9.60000038px;font-style:normal;font-variant:normal;font-weight:normal;font-stretch:normal;line-height:125%;letter-spacing:0px;word-spacing:0px;fill:#000000;fill-opacity:1;stroke:none;font-family:Arial;-inkscape-font-specification:Sans"
   x="191.00821"
   y="-118.48935"
   id="text3239"
   sodipodi:linespacing="125%"
   transform="scale(1,-1)"><tspan
     sodipodi:role="line"
     id="tspan3241"
     x="191.00821"
     y="-118.48935">z</tspan></text>

<text
   xml:space="preserve"
   style="font-size:9.60000038px;font-style:normal;font-variant:normal;font-weight:normal;font-stretch:normal;line-height:125%;letter-spacing:0px;word-spacing:0px;fill:#000000;fill-opacity:1;stroke:none;font-family:Arial;-inkscape-font-specification:Sans"
   x="170.60997"
   y="-127.95751"
   id="text3243"
   sodipodi:linespacing="125%"
   transform="scale(1,-1)"><tspan
     sodipodi:role="line"
     id="tspan3245"
     x="170.60997"
     y="-127.95751">x</tspan></text>

<text
   xml:space="preserve"
   style="font-size:9.60000038px;font-style:normal;font-variant:normal;font-weight:normal;font-stretch:normal;line-height:125%;letter-spacing:0px;word-spacing:0px;fill:#000000;fill-opacity:1;stroke:none;font-family:Arial;-inkscape-font-specification:Sans"
   x="209.76598"
   y="-96.924286"
   id="text3247"
   sodipodi:linespacing="125%"
   transform="scale(1,-1)"><tspan
     sodipodi:role="line"
     id="tspan3249"
     x="209.76598"
     y="-96.924286">y</tspan></text>

<text
   xml:space="preserve"
   style="font-size:12px;font-style:normal;font-variant:normal;font-weight:normal;font-stretch:normal;line-height:125%;letter-spacing:0px;word-spacing:0px;fill:#000000;fill-opacity:1;stroke:none;font-family:Arial;-inkscape-font-specification:Sans"
   x="189.06535"
   y="24.981548"
   id="text3251"
   sodipodi:linespacing="125%"
   transform="matrix(0.8,0,0,-0.8,0,207.00004)"><tspan
     sodipodi:role="line"
     id="tspan3253"
     x="189.06535"
     y="24.981548">Z</tspan></text>

<text
   xml:space="preserve"
   style="font-size:9.60000038px;font-style:normal;font-variant:normal;font-weight:normal;font-stretch:normal;line-height:125%;letter-spacing:0px;word-spacing:0px;fill:#000000;fill-opacity:1;stroke:none;font-family:Arial;-inkscape-font-specification:Sans"
   x="84.976883"
   y="-107.61555"
   id="text3255"
   sodipodi:linespacing="125%"
   transform="scale(1,-1)"><tspan
     sodipodi:role="line"
     id="tspan3257"
     x="84.976883"
     y="-107.61555">Q</tspan></text>

<text
   xml:space="preserve"
   style="font-size:12px;font-style:normal;font-variant:normal;font-weight:normal;font-stretch:normal;line-height:125%;letter-spacing:0px;word-spacing:0px;fill:#000000;fill-opacity:1;stroke:none;font-family:Arial;-inkscape-font-specification:Sans"
   x="227.20653"
   y="157.45033"
   id="text3259"
   sodipodi:linespacing="125%"
   transform="matrix(0.8,0,0,-0.8,0,207.00004)"><tspan
     sodipodi:role="line"
     id="tspan3261"
     x="227.20653"
     y="157.45033">P</tspan></text>

<text
   xml:space="preserve"
   style="font-size:12px;font-style:normal;font-variant:normal;font-weight:normal;font-stretch:normal;line-height:125%;letter-spacing:0px;word-spacing:0px;fill:#000000;fill-opacity:1;stroke:none;font-family:Arial;-inkscape-font-specification:Sans"
   x="189.47548"
   y="191.90044"
   id="text3263"
   sodipodi:linespacing="125%"
   transform="matrix(0.8,0,0,-0.8,0,207.00004)"><tspan
     sodipodi:role="line"
     id="tspan3265"
     x="189.47548"
     y="191.90044">r</tspan></text>

</g></svg>